<svg width="31" height="31" viewBox="0 0 31 31" fill="none" xmlns="http://www.w3.org/2000/svg">
<path fill-rule="evenodd" clip-rule="evenodd" d="M11.909 26.7491C12.3774 27.5895 12.8467 28.3011 13.2678 28.8798C8.82631 28.1443 5.11348 25.2507 3.24266 21.3126H9.75499C10.3055 23.4892 11.1064 25.3091 11.909 26.7491ZM11.7595 21.3126C12.2556 23.0972 12.9292 24.5999 13.6014 25.8058C14.2561 26.9803 14.9087 27.872 15.3928 28.4653C15.4296 28.5103 15.4653 28.5536 15.5 28.5951C15.5347 28.5536 15.5704 28.5103 15.6072 28.4653C16.0913 27.872 16.7439 26.9803 17.3986 25.8058C18.0708 24.5999 18.7444 23.0972 19.2405 21.3126H11.7595ZM19.6817 19.3751H11.3183C11.1053 18.183 10.9792 16.8903 10.9792 15.5001C10.9792 14.1099 11.1053 12.8172 11.3183 11.6251H19.6817C19.8947 12.8172 20.0208 14.1099 20.0208 15.5001C20.0208 16.8903 19.8947 18.183 19.6817 19.3751ZM21.245 21.3126C20.6945 23.4892 19.8936 25.3091 19.091 26.7491C18.6226 27.5895 18.1533 28.3011 17.7322 28.8798C22.1737 28.1443 25.8865 25.2507 27.7573 21.3126H21.245ZM28.5009 19.3751H21.6473C21.8439 18.1721 21.9583 16.8794 21.9583 15.5001C21.9583 14.1207 21.8439 12.8281 21.6473 11.6251H28.5009C28.8663 12.8529 29.0625 14.1536 29.0625 15.5001C29.0625 16.8466 28.8663 18.1473 28.5009 19.3751ZM9.35268 19.3751H2.49914C2.13373 18.1473 1.9375 16.8466 1.9375 15.5001C1.9375 14.1536 2.13373 12.8529 2.49914 11.6251H9.35268C9.15608 12.8281 9.04167 14.1207 9.04167 15.5001C9.04167 16.8794 9.15608 18.1721 9.35268 19.3751ZM9.75499 9.68759H3.24266C5.11348 5.74943 8.82631 2.8559 13.2678 2.12041C12.8467 2.6991 12.3774 3.41069 11.909 4.2511C11.1064 5.69109 10.3055 7.51096 9.75499 9.68759ZM13.6014 5.19439C12.9292 6.40032 12.2556 7.90301 11.7595 9.68759H19.2405C18.7444 7.90301 18.0708 6.40032 17.3986 5.19439C16.7439 4.01986 16.0913 3.12818 15.6072 2.53492C15.5704 2.48991 15.5347 2.44663 15.5 2.40508C15.4653 2.44663 15.4296 2.48991 15.3928 2.53492C14.9087 3.12818 14.2561 4.01986 13.6014 5.19439ZM21.245 9.68759H27.7573C25.8865 5.74943 22.1737 2.8559 17.7322 2.12041C18.1533 2.6991 18.6226 3.41069 19.091 4.2511C19.8936 5.69109 20.6945 7.51096 21.245 9.68759ZM15.5 31.0001C24.0604 31.0001 31 24.0605 31 15.5001C31 6.93968 24.0604 9.15527e-05 15.5 9.15527e-05C6.93959 9.15527e-05 0 6.93968 0 15.5001C0 24.0605 6.93959 31.0001 15.5 31.0001Z" fill="#99A2AD"/>
</svg>
