<svg width="45" height="46" viewBox="0 0 45 46" fill="none" xmlns="http://www.w3.org/2000/svg">
<path d="M33.0331 1.57304H38.7546C39.9673 1.55159 41.1458 1.97619 42.0662 2.76622C42.9865 3.55626 43.5848 4.65674 43.7474 5.85875V20.8588C43.5848 22.0608 42.9865 23.1612 42.0662 23.9513C41.1458 24.7413 39.9673 25.1659 38.7546 25.1445H33.0331M18.0331 29.4302V38.0016C18.0331 39.7066 18.7104 41.3417 19.916 42.5473C21.1216 43.7529 22.7567 44.4302 24.4617 44.4302L33.0331 25.1445V1.57304H8.8617C7.82814 1.56136 6.82518 1.9236 6.03762 2.59303C5.25006 3.26245 4.73096 4.19396 4.57599 5.2159L1.61884 24.5016C1.52561 25.1158 1.56704 25.743 1.74026 26.3396C1.91348 26.9363 2.21434 27.4881 2.622 27.9569C3.02967 28.4258 3.53439 28.8003 4.10119 29.0547C4.66799 29.3091 5.28333 29.4372 5.90456 29.4302H18.0331Z" stroke="white" stroke-width="2" stroke-linecap="round" stroke-linejoin="round"/>
</svg>
