<svg width="30" height="30" viewBox="0 0 30 30" fill="none" xmlns="http://www.w3.org/2000/svg">
<g filter="url(#filter0_d_576_14606)">
<path fill-rule="evenodd" clip-rule="evenodd" d="M6.52651 0.659487C7.46709 0.156753 8.39248 0 10.3354 0H13.9011C14.5089 0 15.0015 0.492487 15.0015 1.1C15.0015 1.70751 14.5089 2.2 13.9011 2.2H10.3354C8.49391 2.2 8.01563 2.35832 7.56428 2.59956C7.14598 2.82314 6.8243 3.14464 6.60062 3.56264C6.35929 4.01362 6.20088 4.4915 6.20088 6.33187V15.6681C6.20088 17.5085 6.35929 17.9864 6.60062 18.4374C6.8243 18.8554 7.14598 19.1769 7.56428 19.4004C8.01563 19.6417 8.49391 19.8 10.3354 19.8H13.9011C14.5089 19.8 15.0015 20.2925 15.0015 20.9C15.0015 21.5075 14.5089 22 13.9011 22H10.3354C8.39248 22 7.46709 21.8432 6.52651 21.3405C5.72468 20.9119 5.08879 20.2764 4.65994 19.475C4.15685 18.5349 4 17.61 4 15.6681V6.33187C4 4.39004 4.15685 3.46509 4.65994 2.52496C5.08879 1.72355 5.72468 1.08805 6.52651 0.659487Z" fill="#FF8197"/>
<path fill-rule="evenodd" clip-rule="evenodd" d="M20.3273 6.42867C20.7571 5.99909 21.4538 5.99909 21.8836 6.42867L25.6777 10.2212C25.8841 10.4275 26 10.7073 26 10.999C26 11.2908 25.8841 11.5706 25.6777 11.7769L21.8836 15.5695C21.4538 15.999 20.7571 15.999 20.3273 15.5695C19.8976 15.1399 19.8976 14.4434 20.3273 14.0138L22.2429 12.099H13.6566C13.0488 12.099 12.5561 11.6066 12.5561 10.999C12.5561 10.3915 13.0488 9.89904 13.6566 9.89904H22.2428L20.3273 7.98431C19.8976 7.55473 19.8976 6.85825 20.3273 6.42867Z" fill="#FF8197"/>
</g>
<defs>
<filter id="filter0_d_576_14606" x="0" y="0" width="30" height="30" filterUnits="userSpaceOnUse" color-interpolation-filters="sRGB">
<feFlood flood-opacity="0" result="BackgroundImageFix"/>
<feColorMatrix in="SourceAlpha" type="matrix" values="0 0 0 0 0 0 0 0 0 0 0 0 0 0 0 0 0 0 127 0" result="hardAlpha"/>
<feOffset dy="4"/>
<feGaussianBlur stdDeviation="2"/>
<feComposite in2="hardAlpha" operator="out"/>
<feColorMatrix type="matrix" values="0 0 0 0 0 0 0 0 0 0 0 0 0 0 0 0 0 0 0.25 0"/>
<feBlend mode="normal" in2="BackgroundImageFix" result="effect1_dropShadow_576_14606"/>
<feBlend mode="normal" in="SourceGraphic" in2="effect1_dropShadow_576_14606" result="shape"/>
</filter>
</defs>
</svg>
