<svg width="22" height="22" viewBox="0 0 22 22" fill="none" xmlns="http://www.w3.org/2000/svg">
<path fill-rule="evenodd" clip-rule="evenodd" d="M2.52651 0.659487C3.46709 0.156753 4.39248 0 6.33541 0H9.9011C10.5089 0 11.0015 0.492487 11.0015 1.1C11.0015 1.70751 10.5089 2.2 9.9011 2.2H6.33541C4.49391 2.2 4.01563 2.35832 3.56428 2.59956C3.14598 2.82314 2.8243 3.14464 2.60062 3.56264C2.35929 4.01362 2.20088 4.4915 2.20088 6.33187V15.6681C2.20088 17.5085 2.35929 17.9864 2.60062 18.4374C2.8243 18.8554 3.14598 19.1769 3.56428 19.4004C4.01563 19.6417 4.49391 19.8 6.33541 19.8H9.9011C10.5089 19.8 11.0015 20.2925 11.0015 20.9C11.0015 21.5075 10.5089 22 9.9011 22H6.33541C4.39248 22 3.46709 21.8432 2.52651 21.3405C1.72468 20.9119 1.08879 20.2764 0.659937 19.475C0.156851 18.5349 0 17.61 0 15.6681V6.33187C0 4.39004 0.156851 3.46509 0.659937 2.52496C1.08879 1.72355 1.72468 1.08805 2.52651 0.659487Z" fill="#FF8197"/>
<path fill-rule="evenodd" clip-rule="evenodd" d="M16.3273 6.42867C16.7571 5.99909 17.4538 5.99909 17.8836 6.42867L21.6777 10.2212C21.8841 10.4275 22 10.7073 22 10.999C22 11.2908 21.8841 11.5706 21.6777 11.7769L17.8836 15.5695C17.4538 15.999 16.7571 15.999 16.3273 15.5695C15.8976 15.1399 15.8976 14.4434 16.3273 14.0138L18.2429 12.099H9.65659C9.04883 12.099 8.55615 11.6066 8.55615 10.999C8.55615 10.3915 9.04883 9.89904 9.65659 9.89904H18.2428L16.3273 7.98431C15.8976 7.55473 15.8976 6.85825 16.3273 6.42867Z" fill="#FF8197"/>
</svg>
