<svg width="28" height="28" viewBox="0 0 28 28" fill="none" xmlns="http://www.w3.org/2000/svg">
<path fill-rule="evenodd" clip-rule="evenodd" d="M18.1984 13.9996C18.1984 16.3192 16.318 18.1996 13.9984 18.1996C11.6788 18.1996 9.79844 16.3192 9.79844 13.9996C9.79844 11.68 11.6788 9.79961 13.9984 9.79961C16.318 9.79961 18.1984 11.68 18.1984 13.9996ZM16.0984 13.9996C16.0984 15.1594 15.1582 16.0996 13.9984 16.0996C12.8386 16.0996 11.8984 15.1594 11.8984 13.9996C11.8984 12.8398 12.8386 11.8996 13.9984 11.8996C15.1582 11.8996 16.0984 12.8398 16.0984 13.9996Z" fill="#828282"/>
<path fill-rule="evenodd" clip-rule="evenodd" d="M26.5984 13.9996C26.5984 18.8996 19.5984 22.3996 13.9984 22.3996C8.39844 22.3996 1.39844 18.8996 1.39844 13.9996C1.39844 9.09961 8.39844 5.59961 13.9984 5.59961C19.5984 5.59961 26.5984 9.09961 26.5984 13.9996ZM24.4984 13.9996C24.4984 15.3754 23.4912 16.9169 21.3086 18.2421C19.186 19.5308 16.4127 20.2996 13.9984 20.2996C11.5841 20.2996 8.81091 19.5308 6.68829 18.2421C4.50565 16.9169 3.49844 15.3754 3.49844 13.9996C3.49844 12.6238 4.50565 11.0823 6.68829 9.75716C8.81091 8.46843 11.5841 7.69961 13.9984 7.69961C16.4127 7.69961 19.186 8.46843 21.3086 9.75716C23.4912 11.0823 24.4984 12.6238 24.4984 13.9996Z" fill="#828282"/>
</svg>
