<svg width="26" height="18" viewBox="0 0 26 18" fill="none" xmlns="http://www.w3.org/2000/svg">
<path fill-rule="evenodd" clip-rule="evenodd" d="M17.1984 8.99961C17.1984 11.3192 15.318 13.1996 12.9984 13.1996C10.6788 13.1996 8.79844 11.3192 8.79844 8.99961C8.79844 6.68001 10.6788 4.79961 12.9984 4.79961C15.318 4.79961 17.1984 6.68001 17.1984 8.99961ZM15.0984 8.99961C15.0984 10.1594 14.1582 11.0996 12.9984 11.0996C11.8386 11.0996 10.8984 10.1594 10.8984 8.99961C10.8984 7.83981 11.8386 6.89961 12.9984 6.89961C14.1582 6.89961 15.0984 7.83981 15.0984 8.99961Z" fill="#828282"/>
<path fill-rule="evenodd" clip-rule="evenodd" d="M25.5984 8.99961C25.5984 13.8996 18.5984 17.3996 12.9984 17.3996C7.39844 17.3996 0.398438 13.8996 0.398438 8.99961C0.398438 4.09961 7.39844 0.599609 12.9984 0.599609C18.5984 0.599609 25.5984 4.09961 25.5984 8.99961ZM23.4984 8.99961C23.4984 10.3754 22.4912 11.9169 20.3086 13.2421C18.186 14.5308 15.4127 15.2996 12.9984 15.2996C10.5841 15.2996 7.81091 14.5308 5.68829 13.2421C3.50565 11.9169 2.49844 10.3754 2.49844 8.99961C2.49844 7.62384 3.50565 6.08234 5.68829 4.75716C7.81091 3.46843 10.5841 2.69961 12.9984 2.69961C15.4127 2.69961 18.186 3.46843 20.3086 4.75716C22.4912 6.08234 23.4984 7.62384 23.4984 8.99961Z" fill="#828282"/>
</svg>
