<svg width="14" height="14" viewBox="0 0 14 14" fill="none" xmlns="http://www.w3.org/2000/svg">
<g opacity="0.55">
<path d="M8.95161 4.94938L11.5355 5.19728C12.4346 5.28354 12.7103 6.16179 12.0161 6.73879L9.99317 8.42005L10.7441 11.159C10.9908 12.0584 10.2256 12.6029 9.45925 12.0616L7.00127 10.3254L4.54328 12.0616C3.78001 12.6007 3.01173 12.0585 3.25839 11.159L4.00937 8.42005L1.98645 6.73879C1.28927 6.15937 1.56392 5.28393 2.46686 5.19728L5.05031 4.94938L6.18851 2.32517C6.54495 1.50337 7.4578 1.50378 7.81394 2.32525L8.95161 4.94938Z" fill="#FEE507"/>
<path d="M8.95161 4.94938L11.5355 5.19728C12.4346 5.28354 12.7103 6.16179 12.0161 6.73879L9.99317 8.42005L10.7441 11.159C10.9908 12.0584 10.2256 12.6029 9.45925 12.0616L7.00127 10.3254L4.54328 12.0616C3.78001 12.6007 3.01173 12.0585 3.25839 11.159L4.00937 8.42005L1.98645 6.73879C1.28927 6.15937 1.56392 5.28393 2.46686 5.19728L5.05031 4.94938L6.18851 2.32517C6.54495 1.50337 7.4578 1.50378 7.81394 2.32525L8.95161 4.94938Z" fill="url(#paint0_linear_383_808)"/>
<path d="M8.95161 4.94938L11.5355 5.19728C12.4346 5.28354 12.7103 6.16179 12.0161 6.73879L9.99317 8.42005L10.7441 11.159C10.9908 12.0584 10.2256 12.6029 9.45925 12.0616L7.00127 10.3254L4.54328 12.0616C3.78001 12.6007 3.01173 12.0585 3.25839 11.159L4.00937 8.42005L1.98645 6.73879C1.28927 6.15937 1.56392 5.28393 2.46686 5.19728L5.05031 4.94938L6.18851 2.32517C6.54495 1.50337 7.4578 1.50378 7.81394 2.32525L8.95161 4.94938Z" fill="white"/>
</g>
<defs>
<linearGradient id="paint0_linear_383_808" x1="7.00008" y1="1.70898" x2="7.00008" y2="12.2771" gradientUnits="userSpaceOnUse">
<stop stop-color="#EAE625"/>
<stop offset="1" stop-color="#F2AD25"/>
</linearGradient>
</defs>
</svg>
