<svg width="24" height="24" viewBox="0 0 24 24" fill="none" xmlns="http://www.w3.org/2000/svg">
<path fill-rule="evenodd" clip-rule="evenodd" d="M11.4 5.39998C8.08627 5.39998 5.39998 8.08627 5.39998 11.4C5.39998 14.7137 8.08627 17.4 11.4 17.4C14.7137 17.4 17.4 14.7137 17.4 11.4C17.4 8.08627 14.7137 5.39998 11.4 5.39998ZM3.59998 11.4C3.59998 7.09215 7.09215 3.59998 11.4 3.59998C15.7078 3.59998 19.2 7.09215 19.2 11.4C19.2 13.2296 18.57 14.9121 17.5152 16.2424L21.3364 20.0636C21.6878 20.415 21.6878 20.9849 21.3364 21.3364C20.9849 21.6878 20.415 21.6878 20.0636 21.3364L16.2424 17.5152C14.9121 18.57 13.2296 19.2 11.4 19.2C7.09215 19.2 3.59998 15.7078 3.59998 11.4Z" fill="#878787"/>
</svg>
