<svg width="26" height="19" viewBox="0 0 26 19" fill="none" xmlns="http://www.w3.org/2000/svg">
<path fill-rule="evenodd" clip-rule="evenodd" d="M12.9482 3.69932C12.3683 3.70177 11.8962 3.23366 11.8937 2.65377C11.8913 2.07387 12.3594 1.60179 12.9393 1.59934C15.804 1.59329 18.7452 2.37084 21.2249 3.80794C23.5916 5.17953 25.5984 7.29405 25.5984 9.99922C25.5984 11.4035 25.0481 12.6608 24.2003 13.7213C23.8382 14.1742 23.1775 14.2478 22.7245 13.8857C22.2716 13.5236 22.198 12.8628 22.5601 12.4099C23.1794 11.6353 23.4984 10.8268 23.4984 9.99922C23.4984 8.41688 22.297 6.85641 20.1719 5.62487C18.0139 4.37416 15.4413 3.69406 12.9482 3.69932Z" fill="#828282"/>
<path fill-rule="evenodd" clip-rule="evenodd" d="M4.77194 16.1905C7.17923 17.5856 10.2486 18.3992 12.9984 18.3992C15.2455 18.3992 17.6959 17.8564 19.8208 16.9065L21.006 18.0917C21.416 18.5017 22.0808 18.5017 22.4909 18.0917C22.901 17.6816 22.901 17.0168 22.4909 16.6068L6.3909 0.506757C5.98085 0.0967061 5.31603 0.0967061 4.90598 0.506757C4.49592 0.916807 4.49592 1.58163 4.90598 1.99168L6.05913 3.14483C4.69507 3.76779 3.44123 4.57268 2.46091 5.54146C1.24744 6.74066 0.398438 8.25156 0.398438 9.99922C0.398438 12.7044 2.40529 14.8189 4.77194 16.1905ZM10.8984 9.99922C10.8984 11.159 11.8386 12.0992 12.9984 12.0992C13.5567 12.0992 14.0641 11.8814 14.4403 11.526L11.4717 8.55736C11.1163 8.93351 10.8984 9.44092 10.8984 9.99922ZM8.79844 9.99922C8.79844 12.3188 10.6788 14.1992 12.9984 14.1992C14.1366 14.1992 15.1691 13.7465 15.9255 13.0112L18.2138 15.2995C16.5314 15.9413 14.6808 16.2992 12.9984 16.2992C10.615 16.2992 7.90931 15.5816 5.82493 14.3736C3.69992 13.142 2.49844 11.5816 2.49844 9.99922C2.49844 8.97571 2.98971 7.97132 3.93703 7.03514C4.86151 6.12153 6.16784 5.33093 7.66062 4.74632L9.98643 7.07213C9.25119 7.82857 8.79844 8.86102 8.79844 9.99922Z" fill="#828282"/>
</svg>
