<svg width="32" height="32" viewBox="0 0 32 32" fill="none" xmlns="http://www.w3.org/2000/svg">
<path fill-rule="evenodd" clip-rule="evenodd" d="M16 32.0001C24.8366 32.0001 32 24.8367 32 16.0001C32 7.16357 24.8366 0.00012207 16 0.00012207C7.16344 0.00012207 0 7.16357 0 16.0001C0 24.8367 7.16344 32.0001 16 32.0001ZM16.9316 22.849C16.483 22.254 15.8486 21.4128 15.4379 20.4047C15.2824 20.0232 15.0055 19.7406 14.7562 19.4861C14.3399 19.0611 14.0004 18.7145 14.4311 18.1169L17.3727 14.0347C17.3926 14.0067 17.3947 13.971 17.378 13.9442C17.3552 13.9075 17.3051 13.899 17.2661 13.9252L13.1142 16.7484C12.1434 17.4085 10.9386 17.5438 9.93337 17.1057C8.48955 16.4764 7.50589 16.0022 6.98241 15.6831C6.87266 15.6162 6.7685 15.5533 6.67023 15.4939C5.31597 14.6754 5.07896 14.5321 6.6968 14.0349C7.88293 13.6704 12.4545 12.2209 15.9164 11.1232C17.519 10.615 18.8839 10.1822 19.5648 9.96747C20.9942 9.51667 21.6768 9.28187 21.8858 9.50028C22.0899 9.7136 21.8421 10.3593 21.3968 11.6583C21.048 12.6758 20.6116 15.2869 20.1811 17.863C19.7582 20.3931 19.341 22.8894 19.018 23.8087C18.4516 25.4207 18.3449 25.2269 17.7067 24.0672C17.6104 23.8922 17.502 23.6952 17.3781 23.4792C17.2868 23.32 17.1268 23.1078 16.9316 22.849Z" fill="#99A2AD"/>
</svg>
