<svg width="33" height="33" viewBox="0 0 33 33" fill="none" xmlns="http://www.w3.org/2000/svg">
<path d="M16.5 6.875C24.75 6.875 30.25 14.575 30.25 16.5C30.25 18.425 24.75 26.125 16.5 26.125C8.25 26.125 2.75 18.425 2.75 16.5C2.75 14.575 8.25 6.875 16.5 6.875ZM16.5 9.625C12.703 9.625 9.625 12.703 9.625 16.5C9.625 20.297 12.703 23.375 16.5 23.375C20.297 23.375 23.375 20.297 23.375 16.5C23.375 12.703 20.297 9.625 16.5 9.625ZM16.5013 13.0625C18.3998 13.0625 19.9388 14.6015 19.9388 16.5C19.9388 18.3985 18.3998 19.9375 16.5013 19.9375C14.6028 19.9375 13.0638 18.3985 13.0638 16.5C13.0638 14.6015 14.6028 13.0625 16.5013 13.0625Z" fill="#C1D9E2"/>
</svg>
