<svg width="33" height="33" viewBox="0 0 33 33" fill="none" xmlns="http://www.w3.org/2000/svg">
<path fill-rule="evenodd" clip-rule="evenodd" d="M2.64199 2.64209C0.374997 4.90908 0.375 8.55775 0.375 15.8551V17.1451C0.375 24.4424 0.374997 28.0911 2.64199 30.3581C4.90898 32.6251 8.55766 32.6251 15.855 32.6251H17.145C24.4423 32.6251 28.091 32.6251 30.358 30.3581C32.625 28.0911 32.625 24.4424 32.625 17.1451V15.8551C32.625 8.55775 32.625 4.90908 30.358 2.64209C28.091 0.375092 24.4423 0.375092 17.145 0.375092H15.855C8.55766 0.375092 4.90898 0.375092 2.64199 2.64209ZM5.75 10.2293C5.92265 18.6183 10.3291 23.6668 17.5919 23.6668H18.0133V18.8675C20.6584 19.136 22.631 21.1135 23.4363 23.6668H27.25C26.2154 19.8472 23.5329 17.7354 21.8657 16.9286C23.5316 15.9308 25.8894 13.5118 26.4447 10.2293H22.975C22.247 12.8987 20.0812 15.3177 18.012 15.5475V10.2293H14.4868V19.54C12.3416 19.003 9.54313 16.3917 9.42846 10.2293H5.75Z" fill="#99A2AD"/>
</svg>
