<svg width="45" height="46" viewBox="0 0 45 46" fill="none" xmlns="http://www.w3.org/2000/svg">
<path d="M12.2846 44.4294H5.85603C4.71938 44.4294 3.6293 43.9779 2.82557 43.1741C2.02184 42.3704 1.57031 41.2803 1.57031 40.1437V25.1437C1.57031 24.0071 2.02184 22.917 2.82557 22.1132C3.6293 21.3095 4.71938 20.858 5.85603 20.858H12.2846M27.2846 16.5723V8.00084C27.2846 6.29587 26.6073 4.66074 25.4017 3.45515C24.1961 2.24956 22.561 1.57227 20.856 1.57227L12.2846 20.858V44.4294H36.456C37.4896 44.4411 38.4925 44.0788 39.2801 43.4094C40.0677 42.74 40.5868 41.8085 40.7417 40.7865L43.6989 21.5008C43.7921 20.8866 43.7507 20.2594 43.5775 19.6628C43.4043 19.0662 43.1034 18.5143 42.6957 18.0455C42.2881 17.5767 41.7833 17.2021 41.2165 16.9477C40.6497 16.6933 40.0344 16.5652 39.4132 16.5723H27.2846Z" stroke="white" stroke-width="2" stroke-linecap="round" stroke-linejoin="round"/>
</svg>
