<svg width="174" height="37" viewBox="0 0 174 37" fill="none" xmlns="http://www.w3.org/2000/svg">
<path fill-rule="evenodd" clip-rule="evenodd" d="M11 0C4.92487 0 0 4.92487 0 11V26C0 32.0751 4.92487 37 11 37H26C32.0751 37 37 32.0751 37 26V11C37 4.92487 32.0751 0 26 0H11ZM21.3105 14.8728C21.5517 15.16 21.7509 15.4988 21.908 15.8894L25.5463 15.5154C25.3444 14.6894 25.0038 13.95 24.5245 13.2974C24.0446 12.6392 23.4561 12.0897 22.759 11.6489C22.0674 11.2075 21.294 10.8914 20.4388 10.7008C19.583 10.5047 18.6755 10.4559 17.7164 10.5545C16.5973 10.6695 15.5783 10.972 14.6594 11.462C13.7404 11.952 12.9584 12.609 12.3134 13.4329C11.6683 14.2568 11.2001 15.2297 10.9087 16.3515C10.6223 17.4673 10.5497 18.7115 10.6908 20.0841C10.8744 21.8701 11.3665 23.3793 12.1673 24.6117C12.973 25.838 14.0129 26.7422 15.2872 27.3243C16.5609 27.9009 17.9915 28.1075 19.5791 27.9443C21.0014 27.7981 22.2343 27.3817 23.2778 26.6951C24.3208 26.003 25.1019 25.0926 25.6209 23.9641C26.1394 22.8301 26.3222 21.5189 26.1692 20.0305L25.9499 17.8972L18.8636 18.6256L19.1407 21.3212L22.7778 20.9473C22.8327 21.6258 22.7394 22.2314 22.4978 22.7643C22.249 23.3247 21.8502 23.7807 21.3014 24.1324C20.7576 24.478 20.0805 24.6924 19.2701 24.7757C18.3771 24.8675 17.5805 24.7321 16.8803 24.3696C16.1796 24.0015 15.6075 23.4225 15.1642 22.6324C14.7209 21.8424 14.4386 20.8575 14.3174 19.6779C14.1961 18.4982 14.2754 17.4817 14.5554 16.6285C14.8348 15.7697 15.2776 15.0919 15.8839 14.595C16.4957 14.0976 17.2343 13.8045 18.0998 13.7155C18.5628 13.6679 18.9905 13.6824 19.3828 13.7591C19.7805 13.8352 20.1396 13.9682 20.4599 14.1581C20.7852 14.3419 21.0688 14.5802 21.3105 14.8728Z" fill="url(#paint0_linear_1_485)"/>
<path d="M21.908 15.8893C21.7509 15.4988 21.5517 15.16 21.3105 14.8728C21.0687 14.5801 20.7852 14.3419 20.4599 14.1581C20.1396 13.9682 19.7805 13.8352 19.3827 13.7591C18.9905 13.6824 18.5628 13.6679 18.0998 13.7155C17.2343 13.8044 16.4957 14.0976 15.8839 14.595C15.2776 15.0919 14.8348 15.7697 14.5554 16.6284C14.2754 17.4817 14.1961 18.4982 14.3173 19.6778C14.4386 20.8575 14.7209 21.8424 15.1642 22.6324C15.6075 23.4225 16.1795 24.0015 16.8803 24.3696C17.5805 24.7321 18.3771 24.8675 19.2701 24.7757C20.0805 24.6924 20.7575 24.478 21.3014 24.1324C21.8502 23.7807 22.249 23.3247 22.4977 22.7643C22.752 22.2034 22.8421 21.5619 22.7678 20.8397L23.5065 20.8724L19.1406 21.3212L18.8635 18.6256L25.9499 17.8971L26.1692 20.0305C26.3222 21.5189 26.1394 22.8301 25.6209 23.9641C25.1019 25.0926 24.3208 26.0029 23.2778 26.6951C22.2343 27.3817 21.0014 27.7981 19.5791 27.9443C17.9915 28.1075 16.5609 27.9009 15.2872 27.3243C14.0129 26.7422 12.9729 25.838 12.1673 24.6117C11.3665 23.3793 10.8743 21.8701 10.6907 20.0841C10.5496 18.7114 10.6223 17.4673 10.9087 16.3515C11.2001 15.2297 11.6683 14.2568 12.3133 13.4329C12.9584 12.609 13.7404 11.952 14.6594 11.462C15.5783 10.972 16.5973 10.6695 17.7163 10.5545C18.6755 10.4559 19.583 10.5047 20.4388 10.7008C21.294 10.8914 22.0674 11.2075 22.759 11.6489C23.4561 12.0897 24.0446 12.6392 24.5244 13.2974C25.0038 13.95 25.3444 14.6894 25.5463 15.5154L21.908 15.8893Z" fill="white"/>
<path d="M125.918 16.9573C125.816 16.497 125.644 16.0523 125.4 15.623C125.157 15.1893 124.845 14.7999 124.464 14.4547C124.088 14.1051 123.646 13.8285 123.137 13.6249C122.632 13.4213 122.066 13.3195 121.437 13.3195C120.477 13.3195 119.625 13.5718 118.881 14.0763C118.142 14.5764 117.563 15.2911 117.142 16.2204C116.726 17.1454 116.518 18.2407 116.518 19.5064C116.518 20.7588 116.726 21.8496 117.142 22.779C117.558 23.7083 118.14 24.4275 118.888 24.9364C119.64 25.4409 120.514 25.6932 121.51 25.6932C122.4 25.6932 123.187 25.4874 123.873 25.0758C124.564 24.6642 125.101 24.0757 125.487 23.3101C125.872 22.5444 126.06 21.6284 126.051 20.5618L126.343 20.7012H121.723V19.9312H126.861V20.7012C126.861 21.9005 126.631 22.9339 126.17 23.8013C125.714 24.6642 125.082 25.3281 124.272 25.7927C123.466 26.2574 122.546 26.4898 121.51 26.4898C120.342 26.4898 119.322 26.1999 118.45 25.6202C117.578 25.0404 116.901 24.2283 116.419 23.1839C115.941 22.1351 115.702 20.9092 115.702 19.5064C115.702 18.4531 115.839 17.4972 116.113 16.6386C116.388 15.7801 116.779 15.0455 117.288 14.4348C117.797 13.8196 118.404 13.3483 119.107 13.0208C119.811 12.6889 120.588 12.5229 121.437 12.5229C122.207 12.5229 122.9 12.6513 123.515 12.908C124.13 13.1602 124.661 13.501 125.108 13.9303C125.56 14.3551 125.925 14.8308 126.203 15.3575C126.482 15.8797 126.67 16.4129 126.768 16.9573H125.918Z" fill="url(#paint1_linear_1_485)"/>
<path d="M132.646 26.5229C132.057 26.5229 131.517 26.4057 131.026 26.1711C130.539 25.9366 130.148 25.5936 129.851 25.1422C129.559 24.6908 129.413 24.142 129.413 23.4959C129.413 23.0711 129.488 22.6971 129.639 22.3741C129.789 22.051 130.022 21.7722 130.336 21.5376C130.65 21.3031 131.053 21.1106 131.544 20.9601C132.035 20.8052 132.621 20.6857 133.303 20.6017C133.821 20.5397 134.283 20.48 134.69 20.4224C135.098 20.3605 135.416 20.2653 135.646 20.137C135.881 20.0086 135.998 19.8139 135.998 19.5528V19.128C135.998 18.3845 135.764 17.7937 135.294 17.3556C134.825 16.9174 134.179 16.6984 133.356 16.6984C132.626 16.6984 132.011 16.8599 131.511 17.183C131.015 17.5016 130.668 17.9132 130.468 18.4177L129.705 18.1322C129.9 17.6454 130.181 17.2405 130.548 16.9174C130.92 16.5944 131.345 16.3532 131.823 16.1939C132.305 16.0346 132.81 15.9549 133.336 15.9549C133.792 15.9549 134.226 16.0191 134.637 16.1474C135.053 16.2758 135.423 16.4705 135.746 16.7316C136.073 16.9927 136.332 17.3268 136.523 17.7339C136.713 18.1367 136.808 18.619 136.808 19.1811V26.3039H135.998V24.4651H135.938C135.761 24.8457 135.518 25.1931 135.208 25.5073C134.903 25.8171 134.533 26.0649 134.1 26.2508C133.67 26.4322 133.186 26.5229 132.646 26.5229ZM132.725 25.7728C133.363 25.7728 133.927 25.6179 134.418 25.3082C134.914 24.9939 135.301 24.5647 135.58 24.0203C135.859 23.476 135.998 22.8587 135.998 22.1683V20.668C135.896 20.7566 135.748 20.8362 135.553 20.907C135.363 20.9734 135.146 21.0331 134.903 21.0862C134.664 21.1349 134.412 21.1792 134.146 21.219C133.885 21.2544 133.631 21.2876 133.383 21.3186C132.639 21.4071 132.033 21.5443 131.564 21.7302C131.099 21.9116 130.758 22.1506 130.542 22.4471C130.329 22.7436 130.223 23.1021 130.223 23.5225C130.223 24.2173 130.462 24.766 130.94 25.1688C131.418 25.5715 132.013 25.7728 132.725 25.7728Z" fill="url(#paint2_linear_1_485)"/>
<path d="M140.203 26.3039V16.1076H140.993V17.6477H141.073C141.268 17.1343 141.604 16.7272 142.082 16.4262C142.56 16.1253 143.135 15.9748 143.808 15.9748C144.547 15.9748 145.142 16.1518 145.594 16.5059C146.049 16.8599 146.377 17.3401 146.576 17.9464H146.649C146.848 17.3489 147.205 16.871 147.718 16.5125C148.236 16.1541 148.873 15.9748 149.63 15.9748C150.617 15.9748 151.369 16.2868 151.887 16.9108C152.409 17.5304 152.67 18.3801 152.67 19.4599V26.3039H151.86V19.4599C151.86 18.6102 151.657 17.9419 151.249 17.4551C150.842 16.9683 150.245 16.7249 149.457 16.7249C148.616 16.7249 147.97 16.9883 147.519 17.5149C147.067 18.0415 146.842 18.712 146.842 19.5263V26.3039H146.032V19.4068C146.032 18.6146 145.833 17.9707 145.434 17.4751C145.036 16.975 144.439 16.7249 143.642 16.7249C143.102 16.7249 142.635 16.8489 142.241 17.0967C141.852 17.3445 141.549 17.6853 141.332 18.119C141.12 18.5527 141.013 19.0505 141.013 19.6126V26.3039H140.203Z" fill="url(#paint3_linear_1_485)"/>
<path d="M160.007 26.5163C159.086 26.5163 158.285 26.2884 157.604 25.8326C156.922 25.3767 156.396 24.7528 156.024 23.9606C155.652 23.1684 155.466 22.2656 155.466 21.2522C155.466 20.2343 155.652 19.3271 156.024 18.5305C156.4 17.7339 156.916 17.1055 157.571 16.6453C158.226 16.185 158.974 15.9549 159.814 15.9549C160.385 15.9549 160.925 16.07 161.434 16.3001C161.947 16.5258 162.399 16.8533 162.788 17.2826C163.182 17.7118 163.49 18.2296 163.711 18.8359C163.937 19.4422 164.05 20.1237 164.05 20.8805V21.385H155.978V20.6481H163.24C163.24 19.9091 163.089 19.243 162.788 18.65C162.487 18.057 162.078 17.5857 161.56 17.2361C161.042 16.8865 160.461 16.7117 159.814 16.7117C159.137 16.7117 158.533 16.902 158.002 17.2826C157.476 17.6587 157.057 18.1676 156.748 18.8093C156.442 19.451 156.283 20.168 156.27 20.9601V21.292C156.27 22.1417 156.418 22.9051 156.714 23.5822C157.015 24.2549 157.445 24.7882 158.002 25.182C158.56 25.5715 159.228 25.7662 160.007 25.7662C160.565 25.7662 161.04 25.6733 161.434 25.4874C161.832 25.2971 162.158 25.067 162.41 24.797C162.662 24.5271 162.852 24.266 162.981 24.0137L163.718 24.3124C163.563 24.6532 163.322 24.9939 162.994 25.3347C162.671 25.671 162.259 25.9521 161.759 26.1778C161.264 26.4035 160.68 26.5163 160.007 26.5163Z" fill="url(#paint4_linear_1_485)"/>
<path d="M173.317 18.3048L172.566 18.504C172.447 18.1322 172.277 17.8114 172.055 17.5414C171.834 17.2715 171.555 17.0635 171.219 16.9174C170.887 16.767 170.489 16.6917 170.024 16.6917C169.276 16.6917 168.663 16.8776 168.185 17.2494C167.712 17.6211 167.475 18.1057 167.475 18.7031C167.475 19.1899 167.636 19.5927 167.959 19.9113C168.283 20.2255 168.776 20.4645 169.44 20.6282L171.006 21.0199C171.812 21.219 172.418 21.5421 172.825 21.989C173.232 22.4316 173.436 22.9826 173.436 23.642C173.436 24.204 173.283 24.7019 172.978 25.1356C172.673 25.5693 172.25 25.9078 171.71 26.1512C171.175 26.3946 170.551 26.5163 169.838 26.5163C168.887 26.5163 168.106 26.295 167.495 25.8525C166.884 25.4055 166.492 24.766 166.32 23.934L167.097 23.7349C167.243 24.3987 167.546 24.9054 168.006 25.255C168.471 25.6002 169.079 25.7728 169.831 25.7728C170.663 25.7728 171.334 25.5759 171.843 25.182C172.356 24.7882 172.613 24.2837 172.613 23.6685C172.613 23.1994 172.462 22.8033 172.161 22.4803C171.861 22.1572 171.405 21.9205 170.794 21.77L169.168 21.3717C168.336 21.1681 167.712 20.8428 167.296 20.3959C166.88 19.9445 166.672 19.3891 166.672 18.7297C166.672 18.1809 166.816 17.6985 167.103 17.2826C167.391 16.8666 167.787 16.5413 168.291 16.3067C168.796 16.0722 169.373 15.9549 170.024 15.9549C170.887 15.9549 171.591 16.1585 172.135 16.5656C172.679 16.9728 173.073 17.5525 173.317 18.3048Z" fill="url(#paint5_linear_1_485)"/>
<path d="M50.3413 25.4824V12.7805H55.3526C56.316 12.7805 57.1368 12.9645 57.8149 13.3324C58.493 13.6963 59.0098 14.2028 59.3654 14.852C59.7251 15.497 59.905 16.2412 59.905 17.0847C59.905 17.9282 59.723 18.6725 59.3592 19.3175C58.9953 19.9625 58.4681 20.4649 57.7776 20.8246C57.0913 21.1843 56.2602 21.3642 55.2844 21.3642H52.0903V19.2121H54.8502C55.3671 19.2121 55.793 19.1232 56.1279 18.9454C56.4669 18.7634 56.7191 18.5133 56.8845 18.1949C57.0541 17.8724 57.1388 17.5023 57.1388 17.0847C57.1388 16.663 57.0541 16.295 56.8845 15.9807C56.7191 15.6624 56.4669 15.4164 56.1279 15.2427C55.7888 15.0649 55.3588 14.976 54.8378 14.976H53.0268V25.4824H50.3413Z" fill="white"/>
<path d="M61.5997 25.4824V15.9559H64.1612V17.6181H64.2604C64.4341 17.0268 64.7256 16.5803 65.1349 16.2785C65.5442 15.9725 66.0156 15.8195 66.549 15.8195C66.6813 15.8195 66.8239 15.8278 66.9769 15.8443C67.1299 15.8608 67.2643 15.8836 67.3801 15.9125V18.2569C67.256 18.2197 67.0844 18.1866 66.8653 18.1577C66.6461 18.1287 66.4456 18.1143 66.2637 18.1143C65.875 18.1143 65.5277 18.199 65.2217 18.3686C64.9199 18.534 64.6801 18.7655 64.5023 19.0632C64.3286 19.3609 64.2418 19.7041 64.2418 20.0928V25.4824H61.5997Z" fill="white"/>
<path d="M72.6069 25.6685C71.6435 25.6685 70.8104 25.4638 70.1074 25.0544C69.4087 24.641 68.8691 24.0662 68.4887 23.3303C68.1083 22.5901 67.9181 21.7322 67.9181 20.7564C67.9181 19.7723 68.1083 18.9123 68.4887 18.1763C68.8691 17.4362 69.4087 16.8614 70.1074 16.4521C70.8104 16.0386 71.6435 15.8319 72.6069 15.8319C73.5703 15.8319 74.4014 16.0386 75.1001 16.4521C75.8031 16.8614 76.3447 17.4362 76.7251 18.1763C77.1055 18.9123 77.2957 19.7723 77.2957 20.7564C77.2957 21.7322 77.1055 22.5901 76.7251 23.3303C76.3447 24.0662 75.8031 24.641 75.1001 25.0544C74.4014 25.4638 73.5703 25.6685 72.6069 25.6685ZM72.6193 23.6218C73.0576 23.6218 73.4235 23.4977 73.7171 23.2496C74.0106 22.9974 74.2319 22.6542 74.3807 22.2201C74.5337 21.7859 74.6102 21.2918 74.6102 20.7378C74.6102 20.1837 74.5337 19.6896 74.3807 19.2555C74.2319 18.8213 74.0106 18.4781 73.7171 18.2259C73.4235 17.9737 73.0576 17.8476 72.6193 17.8476C72.1769 17.8476 71.8048 17.9737 71.5029 18.2259C71.2052 18.4781 70.9799 18.8213 70.8269 19.2555C70.678 19.6896 70.6036 20.1837 70.6036 20.7378C70.6036 21.2918 70.678 21.7859 70.8269 22.2201C70.9799 22.6542 71.2052 22.9974 71.5029 23.2496C71.8048 23.4977 72.1769 23.6218 72.6193 23.6218Z" fill="white"/>
<path d="M79.0137 15.9559H81.6558V25.9538C81.6558 26.6897 81.5111 27.2851 81.2216 27.74C80.9322 28.1948 80.5167 28.5276 79.975 28.7385C79.4375 28.9494 78.7945 29.0548 78.0462 29.0548C77.9552 29.0548 77.8684 29.0527 77.7857 29.0486C77.6988 29.0486 77.6079 29.0465 77.5128 29.0424V26.9771C77.5831 26.9812 77.6451 26.9833 77.6988 26.9833C77.7484 26.9874 77.8022 26.9895 77.8601 26.9895C78.286 26.9895 78.5837 26.8985 78.7532 26.7166C78.9268 26.5388 79.0137 26.2701 79.0137 25.9103V15.9559ZM80.3285 14.7279C79.9399 14.7279 79.6049 14.5977 79.3238 14.3372C79.0426 14.0726 78.902 13.7563 78.902 13.3883C78.902 13.0244 79.0426 12.7122 79.3238 12.4517C79.6049 12.1871 79.9399 12.0548 80.3285 12.0548C80.7255 12.0548 81.0624 12.1871 81.3395 12.4517C81.6206 12.7122 81.7612 13.0244 81.7612 13.3883C81.7612 13.7563 81.6206 14.0726 81.3395 14.3372C81.0624 14.5977 80.7255 14.7279 80.3285 14.7279Z" fill="white"/>
<path d="M88.1137 25.6685C87.1338 25.6685 86.2903 25.47 85.5833 25.0731C84.8804 24.672 84.3387 24.1055 83.9583 23.3737C83.5779 22.6377 83.3877 21.7673 83.3877 20.7626C83.3877 19.7826 83.5779 18.9226 83.9583 18.1825C84.3387 17.4424 84.8742 16.8656 85.5647 16.4521C86.2593 16.0386 87.0738 15.8319 88.0083 15.8319C88.6368 15.8319 89.2218 15.9332 89.7635 16.1358C90.3093 16.3343 90.7848 16.634 91.19 17.0351C91.5993 17.4362 91.9177 17.9406 92.1451 18.5484C92.3725 19.1521 92.4862 19.8591 92.4862 20.6695V21.3952H84.4421V19.7578H89.9992C89.9992 19.3774 89.9165 19.0405 89.7511 18.7469C89.5857 18.4533 89.3562 18.2238 89.0627 18.0585C88.7732 17.8889 88.4362 17.8042 88.0517 17.8042C87.6506 17.8042 87.2951 17.8972 86.9849 18.0833C86.679 18.2652 86.4392 18.5112 86.2655 18.8213C86.0918 19.1273 86.0029 19.4684 85.9988 19.8447V21.4014C85.9988 21.8728 86.0856 22.28 86.2593 22.6232C86.4371 22.9664 86.6872 23.231 87.0098 23.4171C87.3323 23.6032 87.7147 23.6962 88.1571 23.6962C88.4507 23.6962 88.7195 23.6548 88.9634 23.5721C89.2074 23.4894 89.4162 23.3654 89.5898 23.2C89.7635 23.0346 89.8958 22.832 89.9868 22.5922L92.4304 22.7535C92.3064 23.3406 92.0521 23.8533 91.6675 24.2916C91.2871 24.7257 90.7951 25.0648 90.1914 25.3087C89.5919 25.5485 88.8993 25.6685 88.1137 25.6685Z" fill="white"/>
<path d="M98.5147 25.6685C97.5389 25.6685 96.6995 25.4617 95.9966 25.0482C95.2978 24.6306 94.7603 24.0518 94.3841 23.3117C94.0119 22.5715 93.8259 21.7198 93.8259 20.7564C93.8259 19.7806 94.014 18.9247 94.3903 18.1887C94.7707 17.4486 95.3103 16.8718 96.009 16.4583C96.7078 16.0407 97.5389 15.8319 98.5023 15.8319C99.3334 15.8319 100.061 15.9828 100.685 16.2847C101.31 16.5865 101.804 17.0103 102.168 17.5561C102.532 18.1019 102.732 18.7428 102.769 19.4787H100.276C100.206 19.0032 100.02 18.6208 99.7179 18.3314C99.4202 18.0378 99.0295 17.891 98.5457 17.891C98.1363 17.891 97.7787 18.0026 97.4727 18.2259C97.1709 18.4451 96.9352 18.7655 96.7657 19.1872C96.5962 19.609 96.5114 20.1196 96.5114 20.7192C96.5114 21.327 96.5941 21.8438 96.7595 22.2697C96.929 22.6956 97.1667 23.0202 97.4727 23.2434C97.7787 23.4667 98.1363 23.5783 98.5457 23.5783C98.8475 23.5783 99.1183 23.5163 99.3582 23.3923C99.6021 23.2682 99.8027 23.0884 99.9598 22.8527C100.121 22.6129 100.226 22.3255 100.276 21.9906H102.769C102.728 22.7183 102.53 23.3592 102.174 23.9133C101.822 24.4632 101.337 24.8932 100.716 25.2033C100.096 25.5134 99.3623 25.6685 98.5147 25.6685Z" fill="white"/>
<path d="M109.528 15.9559V17.9406H103.791V15.9559H109.528ZM105.094 13.6736H107.736V22.555C107.736 22.7989 107.773 22.9891 107.847 23.1256C107.922 23.2579 108.025 23.3509 108.157 23.4047C108.294 23.4584 108.451 23.4853 108.629 23.4853C108.753 23.4853 108.877 23.475 109.001 23.4543C109.125 23.4295 109.22 23.4109 109.286 23.3985L109.702 25.3646C109.569 25.4059 109.383 25.4534 109.144 25.5072C108.904 25.5651 108.612 25.6002 108.269 25.6126C107.632 25.6374 107.074 25.5527 106.594 25.3583C106.119 25.164 105.749 24.8622 105.484 24.4528C105.22 24.0435 105.089 23.5267 105.094 22.9023V13.6736Z" fill="white"/>
<defs>
<linearGradient id="paint0_linear_1_485" x1="18.5" y1="0" x2="18.5" y2="37" gradientUnits="userSpaceOnUse">
<stop stop-color="#58E1FF"/>
<stop offset="1" stop-color="#3431CE"/>
</linearGradient>
<linearGradient id="paint1_linear_1_485" x1="144.493" y1="-0.178225" x2="144.493" y2="38.766" gradientUnits="userSpaceOnUse">
<stop stop-color="#55D1FA"/>
<stop offset="1" stop-color="#363AD1"/>
</linearGradient>
<linearGradient id="paint2_linear_1_485" x1="144.493" y1="-0.178225" x2="144.493" y2="38.766" gradientUnits="userSpaceOnUse">
<stop stop-color="#55D1FA"/>
<stop offset="1" stop-color="#363AD1"/>
</linearGradient>
<linearGradient id="paint3_linear_1_485" x1="144.493" y1="-0.178225" x2="144.493" y2="38.766" gradientUnits="userSpaceOnUse">
<stop stop-color="#55D1FA"/>
<stop offset="1" stop-color="#363AD1"/>
</linearGradient>
<linearGradient id="paint4_linear_1_485" x1="144.493" y1="-0.178225" x2="144.493" y2="38.766" gradientUnits="userSpaceOnUse">
<stop stop-color="#55D1FA"/>
<stop offset="1" stop-color="#363AD1"/>
</linearGradient>
<linearGradient id="paint5_linear_1_485" x1="144.493" y1="-0.178225" x2="144.493" y2="38.766" gradientUnits="userSpaceOnUse">
<stop stop-color="#55D1FA"/>
<stop offset="1" stop-color="#363AD1"/>
</linearGradient>
</defs>
</svg>
