<svg width="16" height="16" viewBox="0 0 16 16" fill="none" xmlns="http://www.w3.org/2000/svg">
<g opacity="0.55">
<path d="M7.9987 3.33398C11.9987 3.33398 14.6654 7.06732 14.6654 8.00065C14.6654 8.93398 11.9987 12.6673 7.9987 12.6673C3.9987 12.6673 1.33203 8.93398 1.33203 8.00065C1.33203 7.06732 3.9987 3.33398 7.9987 3.33398ZM7.9987 4.66732C6.15775 4.66732 4.66536 6.1597 4.66536 8.00065C4.66536 9.8416 6.15775 11.334 7.9987 11.334C9.83965 11.334 11.332 9.8416 11.332 8.00065C11.332 6.1597 9.83965 4.66732 7.9987 4.66732ZM7.99933 6.33398C8.91981 6.33398 9.666 7.08018 9.666 8.00065C9.666 8.92113 8.91981 9.66732 7.99933 9.66732C7.07886 9.66732 6.33267 8.92113 6.33267 8.00065C6.33267 7.08018 7.07886 6.33398 7.99933 6.33398Z" fill="#FEE507"/>
<path d="M7.9987 3.33398C11.9987 3.33398 14.6654 7.06732 14.6654 8.00065C14.6654 8.93398 11.9987 12.6673 7.9987 12.6673C3.9987 12.6673 1.33203 8.93398 1.33203 8.00065C1.33203 7.06732 3.9987 3.33398 7.9987 3.33398ZM7.9987 4.66732C6.15775 4.66732 4.66536 6.1597 4.66536 8.00065C4.66536 9.8416 6.15775 11.334 7.9987 11.334C9.83965 11.334 11.332 9.8416 11.332 8.00065C11.332 6.1597 9.83965 4.66732 7.9987 4.66732ZM7.99933 6.33398C8.91981 6.33398 9.666 7.08018 9.666 8.00065C9.666 8.92113 8.91981 9.66732 7.99933 9.66732C7.07886 9.66732 6.33267 8.92113 6.33267 8.00065C6.33267 7.08018 7.07886 6.33398 7.99933 6.33398Z" fill="url(#paint0_linear_383_804)"/>
<path d="M7.9987 3.33398C11.9987 3.33398 14.6654 7.06732 14.6654 8.00065C14.6654 8.93398 11.9987 12.6673 7.9987 12.6673C3.9987 12.6673 1.33203 8.93398 1.33203 8.00065C1.33203 7.06732 3.9987 3.33398 7.9987 3.33398ZM7.9987 4.66732C6.15775 4.66732 4.66536 6.1597 4.66536 8.00065C4.66536 9.8416 6.15775 11.334 7.9987 11.334C9.83965 11.334 11.332 9.8416 11.332 8.00065C11.332 6.1597 9.83965 4.66732 7.9987 4.66732ZM7.99933 6.33398C8.91981 6.33398 9.666 7.08018 9.666 8.00065C9.666 8.92113 8.91981 9.66732 7.99933 9.66732C7.07886 9.66732 6.33267 8.92113 6.33267 8.00065C6.33267 7.08018 7.07886 6.33398 7.99933 6.33398Z" fill="white"/>
</g>
<defs>
<linearGradient id="paint0_linear_383_804" x1="7.9987" y1="3.33398" x2="7.9987" y2="12.6673" gradientUnits="userSpaceOnUse">
<stop stop-color="#EAE625"/>
<stop offset="1" stop-color="#F2AD25"/>
</linearGradient>
</defs>
</svg>
