<svg width="20" height="32" viewBox="0 0 20 32" fill="none" xmlns="http://www.w3.org/2000/svg">
<g filter="url(#filter0_ii_1038_24197)">
<path fill-rule="evenodd" clip-rule="evenodd" d="M2 0H10H18C19.1046 0 20 0.88281 20 1.98738V31.244C20 34.6613 10 25.3857 10 25.3857C10 25.3857 0 34.6613 0 31.244V1.98738C0 0.88281 0.895431 0 2 0Z" fill="url(#paint0_linear_1038_24197)"/>
</g>
<path d="M9.99938 19.2994C9.28347 19.2994 8.64711 19.1767 8.09029 18.9315C7.53678 18.6862 7.09928 18.3448 6.77779 17.9073C6.45629 17.4698 6.2856 16.9644 6.26571 16.391H8.13503C8.1516 16.6661 8.24275 16.9064 8.40847 17.1119C8.57419 17.314 8.7946 17.4715 9.06969 17.5842C9.34479 17.6969 9.65302 17.7532 9.99441 17.7532C10.359 17.7532 10.6821 17.6902 10.9639 17.5643C11.2456 17.435 11.466 17.256 11.6251 17.0273C11.7842 16.7987 11.8621 16.5352 11.8588 16.2369C11.8621 15.9286 11.7825 15.6568 11.6201 15.4215C11.4577 15.1862 11.2224 15.0022 10.9142 14.8697C10.6092 14.7371 10.2413 14.6708 9.81046 14.6708H8.9106V13.2489H9.81046C10.1651 13.2489 10.475 13.1876 10.7401 13.065C11.0086 12.9424 11.2191 12.77 11.3715 12.5479C11.524 12.3226 11.5986 12.0624 11.5953 11.7674C11.5986 11.479 11.5339 11.2288 11.4014 11.0167C11.2721 10.8013 11.0882 10.6339 10.8495 10.5146C10.6142 10.3952 10.3374 10.3356 10.0193 10.3356C9.70771 10.3356 9.41936 10.3919 9.15421 10.5046C8.88906 10.6173 8.67528 10.7781 8.51287 10.9869C8.35047 11.1924 8.26429 11.4376 8.25435 11.7227H6.47949C6.49275 11.1526 6.65681 10.6521 6.97168 10.2212C7.28986 9.78705 7.7141 9.44898 8.24441 9.20703C8.77471 8.96177 9.36964 8.83913 10.0292 8.83913C10.7087 8.83913 11.2986 8.96674 11.7991 9.22195C12.3029 9.47384 12.6923 9.81356 12.9674 10.2411C13.2425 10.6687 13.3801 11.141 13.3801 11.658C13.3834 12.2314 13.2143 12.712 12.873 13.0998C12.5349 13.4876 12.0908 13.7411 11.5406 13.8604V13.94C12.2565 14.0394 12.805 14.3046 13.1862 14.7354C13.5706 15.163 13.7612 15.695 13.7579 16.3313C13.7579 16.9014 13.5955 17.4118 13.2707 17.8626C12.9492 18.31 12.5051 18.6613 11.9383 18.9165C11.3749 19.1718 10.7285 19.2994 9.99938 19.2994Z" fill="white"/>
<defs>
<filter id="filter0_ii_1038_24197" x="0" y="-1" width="21" height="34" filterUnits="userSpaceOnUse" color-interpolation-filters="sRGB">
<feFlood flood-opacity="0" result="BackgroundImageFix"/>
<feBlend mode="normal" in="SourceGraphic" in2="BackgroundImageFix" result="shape"/>
<feColorMatrix in="SourceAlpha" type="matrix" values="0 0 0 0 0 0 0 0 0 0 0 0 0 0 0 0 0 0 127 0" result="hardAlpha"/>
<feOffset dx="1" dy="1"/>
<feGaussianBlur stdDeviation="2.5"/>
<feComposite in2="hardAlpha" operator="arithmetic" k2="-1" k3="1"/>
<feColorMatrix type="matrix" values="0 0 0 0 0.545833 0 0 0 0 0.3275 0 0 0 0 0 0 0 0 0.58 0"/>
<feBlend mode="normal" in2="shape" result="effect1_innerShadow_1038_24197"/>
<feColorMatrix in="SourceAlpha" type="matrix" values="0 0 0 0 0 0 0 0 0 0 0 0 0 0 0 0 0 0 127 0" result="hardAlpha"/>
<feOffset dy="-1"/>
<feGaussianBlur stdDeviation="2"/>
<feComposite in2="hardAlpha" operator="arithmetic" k2="-1" k3="1"/>
<feColorMatrix type="matrix" values="0 0 0 0 0.945833 0 0 0 0 0.554416 0 0 0 0 0.193108 0 0 0 1 0"/>
<feBlend mode="normal" in2="effect1_innerShadow_1038_24197" result="effect2_innerShadow_1038_24197"/>
</filter>
<linearGradient id="paint0_linear_1038_24197" x1="4" y1="1.46456" x2="19.3831" y2="34.9447" gradientUnits="userSpaceOnUse">
<stop stop-color="#C25506"/>
<stop offset="1" stop-color="#CD7F32"/>
</linearGradient>
</defs>
</svg>
