<svg width="147" height="27" viewBox="0 0 147 27" fill="none" xmlns="http://www.w3.org/2000/svg">
<path d="M15.4836 11.0951C15.369 10.8102 15.2236 10.5629 15.0476 10.3533C14.8712 10.1398 14.6643 9.9659 14.4269 9.83176C14.1931 9.69318 13.9311 9.59613 13.6409 9.5406C13.3546 9.48466 13.0425 9.47405 12.7046 9.50879C12.0731 9.57371 11.5341 9.78765 11.0876 10.1506C10.6452 10.5132 10.3221 11.0078 10.1182 11.6345C9.91389 12.2571 9.85598 12.9989 9.94447 13.8597C10.033 14.7205 10.239 15.4392 10.5625 16.0157C10.886 16.5923 11.3034 17.0148 11.8147 17.2834C12.3257 17.548 12.907 17.6467 13.5587 17.5798C14.15 17.519 14.6441 17.3625 15.0409 17.1103C15.4414 16.8537 15.7324 16.5209 15.914 16.112C16.0995 15.7027 16.1652 15.2345 16.1111 14.7076L16.6501 14.7314L13.4642 15.0589L13.262 13.0918L18.4331 12.5603L18.5931 14.117C18.7048 15.2032 18.5714 16.16 18.193 16.9875C17.8143 17.811 17.2443 18.4753 16.4832 18.9804C15.7217 19.4815 14.822 19.7853 13.7842 19.892C12.6256 20.0111 11.5817 19.8603 10.6522 19.4395C9.72234 19.0148 8.96344 18.355 8.3755 17.4601C7.79117 16.5608 7.43202 15.4595 7.29805 14.1561C7.19508 13.1545 7.2481 12.2466 7.4571 11.4324C7.6697 10.6138 8.01137 9.90383 8.4821 9.30258C8.95283 8.70133 9.52348 8.22193 10.1941 7.86437C10.8646 7.50681 11.6082 7.28606 12.4248 7.20212C13.1248 7.13017 13.787 7.16576 14.4115 7.30889C15.0355 7.44799 15.5999 7.67861 16.1046 8.00072C16.6133 8.32243 17.0427 8.72341 17.3929 9.20369C17.7427 9.67994 17.9912 10.2195 18.1386 10.8222L15.4836 11.0951Z" fill="url(#paint0_linear_1038_24769)"/>
<path d="M9.5 0.5H17.5C21.9183 0.5 25.5 4.08172 25.5 8.5V18.5C25.5 22.9183 21.9183 26.5 17.5 26.5C13.0817 26.5 9.5 22.9183 9.5 18.5V0.5Z" fill="url(#paint1_linear_1038_24769)"/>
<path d="M16.5 0.5H8.5C4.08172 0.5 0.5 4.08172 0.5 8.5V18.5C0.5 22.9183 4.08172 26.5 8.5 26.5C12.9183 26.5 16.5 22.9183 16.5 18.5V0.5Z" fill="url(#paint2_linear_1038_24769)"/>
<path fill-rule="evenodd" clip-rule="evenodd" d="M9.5 0.5V18.5C9.5 21.2497 10.8872 23.6753 13 25.1153C15.1128 23.6753 16.5 21.2497 16.5 18.5V0.5H9.5Z" fill="url(#paint3_linear_1038_24769)"/>
<path d="M103.525 11.3009C103.435 10.9064 103.282 10.5251 103.067 10.1572C102.852 9.78544 102.577 9.45164 102.24 9.15576C101.908 8.85609 101.517 8.61901 101.068 8.44452C100.622 8.27003 100.122 8.18279 99.5664 8.18279C98.7181 8.18279 97.9656 8.399 97.3088 8.83144C96.656 9.26008 96.1439 9.87269 95.7725 10.6693C95.405 11.4621 95.2213 12.4009 95.2213 13.4858C95.2213 14.5593 95.405 15.4943 95.7725 16.2909C96.1399 17.0875 96.654 17.7039 97.3147 18.1401C97.9793 18.5725 98.7513 18.7888 99.6309 18.7888C100.417 18.7888 101.113 18.6124 101.718 18.2596C102.328 17.9068 102.803 17.4023 103.143 16.7461C103.484 16.0899 103.65 15.3046 103.642 14.3905L103.9 14.51H99.8186V13.8499H104.357V14.51C104.357 15.5379 104.154 16.4237 103.747 17.1671C103.345 17.9068 102.786 18.4758 102.07 18.8741C101.359 19.2724 100.546 19.4716 99.6309 19.4716C98.5989 19.4716 97.6978 19.2231 96.9277 18.7262C96.1575 18.2293 95.5594 17.5332 95.1333 16.638C94.7111 15.739 94.5 14.6882 94.5 13.4858C94.5 12.583 94.6212 11.7636 94.8636 11.0277C95.1059 10.2918 95.4519 9.66216 95.9015 9.13869C96.351 8.61143 96.8866 8.20744 97.5082 7.92674C98.1298 7.64225 98.8158 7.5 99.5664 7.5C100.247 7.5 100.858 7.61 101.402 7.83001C101.945 8.04623 102.414 8.33831 102.809 8.70626C103.208 9.07041 103.53 9.47819 103.777 9.92959C104.023 10.3772 104.189 10.8343 104.275 11.3009H103.525Z" fill="url(#paint4_linear_1038_24769)"/>
<path d="M109.468 19.5C108.948 19.5 108.471 19.3995 108.037 19.1984C107.607 18.9974 107.261 18.7034 106.999 18.3165C106.741 17.9296 106.612 17.4592 106.612 16.9054C106.612 16.5413 106.678 16.2207 106.811 15.9438C106.944 15.6669 107.149 15.4279 107.427 15.2269C107.705 15.0258 108.06 14.8608 108.494 14.7319C108.928 14.5991 109.446 14.4967 110.048 14.4246C110.506 14.3715 110.914 14.3203 111.274 14.271C111.633 14.2179 111.915 14.1363 112.118 14.0263C112.325 13.9163 112.429 13.7494 112.429 13.5256V13.1615C112.429 12.5242 112.222 12.0178 111.807 11.6422C111.393 11.2667 110.822 11.0789 110.095 11.0789C109.45 11.0789 108.907 11.2174 108.465 11.4943C108.027 11.7674 107.72 12.1202 107.544 12.5526L106.87 12.308C107.042 11.8907 107.29 11.5436 107.615 11.2667C107.943 10.9898 108.318 10.7831 108.741 10.6465C109.167 10.51 109.612 10.4417 110.078 10.4417C110.48 10.4417 110.863 10.4967 111.227 10.6067C111.594 10.7167 111.921 10.8836 112.206 11.1074C112.495 11.3312 112.724 11.6176 112.892 11.9666C113.06 12.3118 113.144 12.7252 113.144 13.207V19.3122H112.429V17.7361H112.376C112.22 18.0624 112.005 18.3601 111.731 18.6294C111.461 18.895 111.135 19.1074 110.752 19.2667C110.373 19.4222 109.945 19.5 109.468 19.5ZM109.538 18.857C110.101 18.857 110.599 18.7243 111.033 18.4587C111.471 18.1894 111.813 17.8215 112.06 17.3549C112.306 16.8883 112.429 16.3592 112.429 15.7674V14.4815C112.339 14.5574 112.208 14.6257 112.036 14.6863C111.868 14.7432 111.676 14.7945 111.461 14.84C111.25 14.8817 111.027 14.9196 110.793 14.9538C110.562 14.9841 110.337 15.0126 110.119 15.0391C109.462 15.115 108.926 15.2326 108.512 15.3919C108.101 15.5474 107.8 15.7523 107.609 16.0064C107.421 16.2606 107.327 16.5678 107.327 16.9282C107.327 17.5237 107.538 17.9941 107.961 18.3393C108.383 18.6844 108.909 18.857 109.538 18.857Z" fill="url(#paint5_linear_1038_24769)"/>
<path d="M116.144 19.3122V10.5725H116.842V11.8926H116.912C117.084 11.4526 117.381 11.1036 117.803 10.8457C118.225 10.5877 118.734 10.4587 119.328 10.4587C119.981 10.4587 120.507 10.6105 120.905 10.9139C121.308 11.2174 121.597 11.629 121.773 12.1486H121.838C122.014 11.6366 122.328 11.2269 122.782 10.9196C123.239 10.6124 123.802 10.4587 124.471 10.4587C125.342 10.4587 126.007 10.7262 126.464 11.261C126.926 11.7921 127.156 12.5204 127.156 13.4459V19.3122H126.441V13.4459C126.441 12.7176 126.261 12.1449 125.901 11.7276C125.542 11.3103 125.014 11.1017 124.318 11.1017C123.575 11.1017 123.005 11.3274 122.606 11.7788C122.207 12.2302 122.008 12.8049 122.008 13.5028V19.3122H121.292V13.4004C121.292 12.7214 121.116 12.1695 120.765 11.7447C120.413 11.316 119.885 11.1017 119.181 11.1017C118.704 11.1017 118.292 11.2079 117.944 11.4203C117.6 11.6328 117.332 11.9248 117.141 12.2966C116.953 12.6683 116.859 13.0951 116.859 13.5768V19.3122H116.144Z" fill="url(#paint6_linear_1038_24769)"/>
<path d="M133.637 19.4943C132.824 19.4943 132.117 19.299 131.515 18.9083C130.913 18.5175 130.447 17.9827 130.119 17.3037C129.791 16.6247 129.626 15.8509 129.626 14.9822C129.626 14.1098 129.791 13.3321 130.119 12.6494C130.451 11.9666 130.907 11.4279 131.485 11.0334C132.064 10.6389 132.724 10.4417 133.467 10.4417C133.972 10.4417 134.448 10.5403 134.898 10.7376C135.352 10.931 135.75 11.2117 136.094 11.5797C136.442 11.9476 136.714 12.3914 136.909 12.9111C137.109 13.4308 137.208 14.0149 137.208 14.6636V15.096H130.078V14.4644H136.493C136.493 13.831 136.36 13.2601 136.094 12.7518C135.828 12.2435 135.467 11.8395 135.009 11.5398C134.552 11.2402 134.038 11.0903 133.467 11.0903C132.869 11.0903 132.335 11.2534 131.866 11.5797C131.401 11.9021 131.032 12.3383 130.758 12.8883C130.488 13.4384 130.348 14.0529 130.336 14.7319V15.0164C130.336 15.7447 130.467 16.399 130.729 16.9794C130.995 17.556 131.374 18.013 131.866 18.3506C132.359 18.6844 132.949 18.8514 133.637 18.8514C134.13 18.8514 134.55 18.7717 134.898 18.6124C135.25 18.4493 135.537 18.252 135.76 18.0206C135.983 17.7892 136.151 17.5654 136.264 17.3492L136.915 17.6053C136.778 17.8973 136.565 18.1894 136.276 18.4815C135.991 18.7698 135.627 19.0107 135.185 19.2041C134.748 19.3976 134.231 19.4943 133.637 19.4943Z" fill="url(#paint7_linear_1038_24769)"/>
<path d="M145.394 12.4559L144.732 12.6266C144.626 12.308 144.476 12.033 144.28 11.8016C144.085 11.5702 143.839 11.3919 143.541 11.2667C143.248 11.1377 142.896 11.0733 142.486 11.0733C141.825 11.0733 141.284 11.2326 140.862 11.5512C140.443 11.8698 140.234 12.2852 140.234 12.7973C140.234 13.2146 140.377 13.5597 140.662 13.8329C140.948 14.1022 141.384 14.307 141.97 14.4474L143.354 14.7831C144.065 14.9538 144.601 15.2307 144.961 15.6138C145.32 15.9931 145.5 16.4654 145.5 17.0306C145.5 17.5123 145.365 17.9391 145.095 18.3108C144.826 18.6826 144.452 18.9727 143.975 19.1814C143.502 19.39 142.951 19.4943 142.322 19.4943C141.481 19.4943 140.791 19.3046 140.252 18.9253C139.712 18.5422 139.366 17.9941 139.214 17.2809L139.9 17.1102C140.029 17.6792 140.297 18.1136 140.703 18.4132C141.114 18.7091 141.651 18.857 142.316 18.857C143.051 18.857 143.643 18.6882 144.093 18.3506C144.546 18.013 144.773 17.5806 144.773 17.0533C144.773 16.6513 144.64 16.3118 144.374 16.0349C144.108 15.7579 143.706 15.555 143.166 15.426L141.73 15.0846C140.995 14.9101 140.443 14.6313 140.076 14.2482C139.708 13.8613 139.525 13.3853 139.525 12.8201C139.525 12.3497 139.652 11.9362 139.906 11.5797C140.16 11.2231 140.51 10.9443 140.955 10.7432C141.401 10.5422 141.911 10.4417 142.486 10.4417C143.248 10.4417 143.87 10.6162 144.351 10.9651C144.832 11.3141 145.179 11.811 145.394 12.4559Z" fill="url(#paint8_linear_1038_24769)"/>
<path d="M103.525 11.3009C103.435 10.9064 103.282 10.5251 103.067 10.1572C102.852 9.78544 102.577 9.45164 102.24 9.15576C101.908 8.85609 101.517 8.61901 101.068 8.44452C100.622 8.27003 100.122 8.18279 99.5664 8.18279C98.7181 8.18279 97.9656 8.399 97.3088 8.83144C96.656 9.26008 96.1439 9.87269 95.7725 10.6693C95.405 11.4621 95.2213 12.4009 95.2213 13.4858C95.2213 14.5593 95.405 15.4943 95.7725 16.2909C96.1399 17.0875 96.654 17.7039 97.3147 18.1401C97.9793 18.5725 98.7513 18.7888 99.6309 18.7888C100.417 18.7888 101.113 18.6124 101.718 18.2596C102.328 17.9068 102.803 17.4023 103.143 16.7461C103.484 16.0899 103.65 15.3046 103.642 14.3905L103.9 14.51H99.8186V13.8499H104.357V14.51C104.357 15.5379 104.154 16.4237 103.747 17.1671C103.345 17.9068 102.786 18.4758 102.07 18.8741C101.359 19.2724 100.546 19.4716 99.6309 19.4716C98.5989 19.4716 97.6978 19.2231 96.9277 18.7262C96.1575 18.2293 95.5594 17.5332 95.1333 16.638C94.7111 15.739 94.5 14.6882 94.5 13.4858C94.5 12.583 94.6212 11.7636 94.8636 11.0277C95.1059 10.2918 95.4519 9.66216 95.9015 9.13869C96.351 8.61143 96.8866 8.20744 97.5082 7.92674C98.1298 7.64225 98.8158 7.5 99.5664 7.5C100.247 7.5 100.858 7.61 101.402 7.83001C101.945 8.04623 102.414 8.33831 102.809 8.70626C103.208 9.07041 103.53 9.47819 103.777 9.92959C104.023 10.3772 104.189 10.8343 104.275 11.3009H103.525Z" stroke="url(#paint9_linear_1038_24769)"/>
<path d="M109.468 19.5C108.948 19.5 108.471 19.3995 108.037 19.1984C107.607 18.9974 107.261 18.7034 106.999 18.3165C106.741 17.9296 106.612 17.4592 106.612 16.9054C106.612 16.5413 106.678 16.2207 106.811 15.9438C106.944 15.6669 107.149 15.4279 107.427 15.2269C107.705 15.0258 108.06 14.8608 108.494 14.7319C108.928 14.5991 109.446 14.4967 110.048 14.4246C110.506 14.3715 110.914 14.3203 111.274 14.271C111.633 14.2179 111.915 14.1363 112.118 14.0263C112.325 13.9163 112.429 13.7494 112.429 13.5256V13.1615C112.429 12.5242 112.222 12.0178 111.807 11.6422C111.393 11.2667 110.822 11.0789 110.095 11.0789C109.45 11.0789 108.907 11.2174 108.465 11.4943C108.027 11.7674 107.72 12.1202 107.544 12.5526L106.87 12.308C107.042 11.8907 107.29 11.5436 107.615 11.2667C107.943 10.9898 108.318 10.7831 108.741 10.6465C109.167 10.51 109.612 10.4417 110.078 10.4417C110.48 10.4417 110.863 10.4967 111.227 10.6067C111.594 10.7167 111.921 10.8836 112.206 11.1074C112.495 11.3312 112.724 11.6176 112.892 11.9666C113.06 12.3118 113.144 12.7252 113.144 13.207V19.3122H112.429V17.7361H112.376C112.22 18.0624 112.005 18.3601 111.731 18.6294C111.461 18.895 111.135 19.1074 110.752 19.2667C110.373 19.4222 109.945 19.5 109.468 19.5ZM109.538 18.857C110.101 18.857 110.599 18.7243 111.033 18.4587C111.471 18.1894 111.813 17.8215 112.06 17.3549C112.306 16.8883 112.429 16.3592 112.429 15.7674V14.4815C112.339 14.5574 112.208 14.6257 112.036 14.6863C111.868 14.7432 111.676 14.7945 111.461 14.84C111.25 14.8817 111.027 14.9196 110.793 14.9538C110.562 14.9841 110.337 15.0126 110.119 15.0391C109.462 15.115 108.926 15.2326 108.512 15.3919C108.101 15.5474 107.8 15.7523 107.609 16.0064C107.421 16.2606 107.327 16.5678 107.327 16.9282C107.327 17.5237 107.538 17.9941 107.961 18.3393C108.383 18.6844 108.909 18.857 109.538 18.857Z" stroke="url(#paint10_linear_1038_24769)"/>
<path d="M116.144 19.3122V10.5725H116.842V11.8926H116.912C117.084 11.4526 117.381 11.1036 117.803 10.8457C118.225 10.5877 118.734 10.4587 119.328 10.4587C119.981 10.4587 120.507 10.6105 120.905 10.9139C121.308 11.2174 121.597 11.629 121.773 12.1486H121.838C122.014 11.6366 122.328 11.2269 122.782 10.9196C123.239 10.6124 123.802 10.4587 124.471 10.4587C125.342 10.4587 126.007 10.7262 126.464 11.261C126.926 11.7921 127.156 12.5204 127.156 13.4459V19.3122H126.441V13.4459C126.441 12.7176 126.261 12.1449 125.901 11.7276C125.542 11.3103 125.014 11.1017 124.318 11.1017C123.575 11.1017 123.005 11.3274 122.606 11.7788C122.207 12.2302 122.008 12.8049 122.008 13.5028V19.3122H121.292V13.4004C121.292 12.7214 121.116 12.1695 120.765 11.7447C120.413 11.316 119.885 11.1017 119.181 11.1017C118.704 11.1017 118.292 11.2079 117.944 11.4203C117.6 11.6328 117.332 11.9248 117.141 12.2966C116.953 12.6683 116.859 13.0951 116.859 13.5768V19.3122H116.144Z" stroke="url(#paint11_linear_1038_24769)"/>
<path d="M133.637 19.4943C132.824 19.4943 132.117 19.299 131.515 18.9083C130.913 18.5175 130.447 17.9827 130.119 17.3037C129.791 16.6247 129.626 15.8509 129.626 14.9822C129.626 14.1098 129.791 13.3321 130.119 12.6494C130.451 11.9666 130.907 11.4279 131.485 11.0334C132.064 10.6389 132.724 10.4417 133.467 10.4417C133.972 10.4417 134.448 10.5403 134.898 10.7376C135.352 10.931 135.75 11.2117 136.094 11.5797C136.442 11.9476 136.714 12.3914 136.909 12.9111C137.109 13.4308 137.208 14.0149 137.208 14.6636V15.096H130.078V14.4644H136.493C136.493 13.831 136.36 13.2601 136.094 12.7518C135.828 12.2435 135.467 11.8395 135.009 11.5398C134.552 11.2402 134.038 11.0903 133.467 11.0903C132.869 11.0903 132.335 11.2534 131.866 11.5797C131.401 11.9021 131.032 12.3383 130.758 12.8883C130.488 13.4384 130.348 14.0529 130.336 14.7319V15.0164C130.336 15.7447 130.467 16.399 130.729 16.9794C130.995 17.556 131.374 18.013 131.866 18.3506C132.359 18.6844 132.949 18.8514 133.637 18.8514C134.13 18.8514 134.55 18.7717 134.898 18.6124C135.25 18.4493 135.537 18.252 135.76 18.0206C135.983 17.7892 136.151 17.5654 136.264 17.3492L136.915 17.6053C136.778 17.8973 136.565 18.1894 136.276 18.4815C135.991 18.7698 135.627 19.0107 135.185 19.2041C134.748 19.3976 134.231 19.4943 133.637 19.4943Z" stroke="url(#paint12_linear_1038_24769)"/>
<path d="M145.394 12.4559L144.732 12.6266C144.626 12.308 144.476 12.033 144.28 11.8016C144.085 11.5702 143.839 11.3919 143.541 11.2667C143.248 11.1377 142.896 11.0733 142.486 11.0733C141.825 11.0733 141.284 11.2326 140.862 11.5512C140.443 11.8698 140.234 12.2852 140.234 12.7973C140.234 13.2146 140.377 13.5597 140.662 13.8329C140.948 14.1022 141.384 14.307 141.97 14.4474L143.354 14.7831C144.065 14.9538 144.601 15.2307 144.961 15.6138C145.32 15.9931 145.5 16.4654 145.5 17.0306C145.5 17.5123 145.365 17.9391 145.095 18.3108C144.826 18.6826 144.452 18.9727 143.975 19.1814C143.502 19.39 142.951 19.4943 142.322 19.4943C141.481 19.4943 140.791 19.3046 140.252 18.9253C139.712 18.5422 139.366 17.9941 139.214 17.2809L139.9 17.1102C140.029 17.6792 140.297 18.1136 140.703 18.4132C141.114 18.7091 141.651 18.857 142.316 18.857C143.051 18.857 143.643 18.6882 144.093 18.3506C144.546 18.013 144.773 17.5806 144.773 17.0533C144.773 16.6513 144.64 16.3118 144.374 16.0349C144.108 15.7579 143.706 15.555 143.166 15.426L141.73 15.0846C140.995 14.9101 140.443 14.6313 140.076 14.2482C139.708 13.8613 139.525 13.3853 139.525 12.8201C139.525 12.3497 139.652 11.9362 139.906 11.5797C140.16 11.2231 140.51 10.9443 140.955 10.7432C141.401 10.5422 141.911 10.4417 142.486 10.4417C143.248 10.4417 143.87 10.6162 144.351 10.9651C144.832 11.3141 145.179 11.811 145.394 12.4559Z" stroke="url(#paint13_linear_1038_24769)"/>
<path d="M35.5 19.3479V8.14028H39.9744C40.8345 8.14028 41.5673 8.30263 42.1728 8.62733C42.7782 8.94838 43.2397 9.39529 43.5572 9.96808C43.8783 10.5372 44.0389 11.1939 44.0389 11.9382C44.0389 12.6824 43.8765 13.3391 43.5516 13.9082C43.2267 14.4774 42.7561 14.9206 42.1395 15.2381C41.5267 15.5555 40.7847 15.7142 39.9134 15.7142H37.0616V13.8152H39.5258C39.9873 13.8152 40.3675 13.7368 40.6665 13.5799C40.9693 13.4194 41.1945 13.1987 41.3421 12.9177C41.4935 12.6332 41.5692 12.3066 41.5692 11.9382C41.5692 11.566 41.4935 11.2413 41.3421 10.9641C41.1945 10.6831 40.9693 10.4661 40.6665 10.3128C40.3638 10.156 39.9799 10.0775 39.5147 10.0775H37.8978V19.3479H35.5Z" fill="white"/>
<path d="M45.5521 19.3479V10.9422H47.8391V12.4088H47.9277C48.0827 11.8871 48.343 11.4931 48.7085 11.2267C49.0739 10.9568 49.4948 10.8218 49.971 10.8218C50.0892 10.8218 50.2165 10.8291 50.3531 10.8437C50.4897 10.8583 50.6097 10.8783 50.7131 10.9039V12.9725C50.6023 12.9396 50.4491 12.9104 50.2534 12.8849C50.0578 12.8594 49.8787 12.8466 49.7163 12.8466C49.3693 12.8466 49.0592 12.9214 48.786 13.071C48.5165 13.2169 48.3024 13.4212 48.1436 13.6839C47.9886 13.9466 47.9111 14.2494 47.9111 14.5923V19.3479H45.5521Z" fill="white"/>
<path d="M55.3798 19.512C54.5197 19.512 53.7758 19.3314 53.1482 18.9703C52.5243 18.6054 52.0425 18.0983 51.7029 17.4489C51.3633 16.7959 51.1934 16.0389 51.1934 15.1779C51.1934 14.3096 51.3633 13.5507 51.7029 12.9013C52.0425 12.2483 52.5243 11.7412 53.1482 11.38C53.7758 11.0151 54.5197 10.8327 55.3798 10.8327C56.24 10.8327 56.982 11.0151 57.6059 11.38C58.2335 11.7412 58.7171 12.2483 59.0568 12.9013C59.3964 13.5507 59.5662 14.3096 59.5662 15.1779C59.5662 16.0389 59.3964 16.7959 59.0568 17.4489C58.7171 18.0983 58.2335 18.6054 57.6059 18.9703C56.982 19.3314 56.24 19.512 55.3798 19.512ZM55.3909 17.7061C55.7822 17.7061 56.109 17.5967 56.3711 17.3778C56.6332 17.1552 56.8307 16.8524 56.9636 16.4694C57.1002 16.0863 57.1685 15.6503 57.1685 15.1614C57.1685 14.6726 57.1002 14.2366 56.9636 13.8535C56.8307 13.4704 56.6332 13.1676 56.3711 12.9451C56.109 12.7225 55.7822 12.6113 55.3909 12.6113C54.9959 12.6113 54.6637 12.7225 54.3942 12.9451C54.1284 13.1676 53.9272 13.4704 53.7906 13.8535C53.6577 14.2366 53.5912 14.6726 53.5912 15.1614C53.5912 15.6503 53.6577 16.0863 53.7906 16.4694C53.9272 16.8524 54.1284 17.1552 54.3942 17.3778C54.6637 17.5967 54.9959 17.7061 55.3909 17.7061Z" fill="white"/>
<path d="M61.1001 10.9422H63.4591V19.7638C63.4591 20.4132 63.3299 20.9385 63.0715 21.3398C62.8131 21.7412 62.4421 22.0348 61.9585 22.2209C61.4785 22.407 60.9045 22.5 60.2363 22.5C60.1551 22.5 60.0775 22.4982 60.0037 22.4945C59.9262 22.4945 59.845 22.4927 59.7601 22.4891V20.6667C59.8228 20.6704 59.8782 20.6722 59.9262 20.6722C59.9705 20.6758 60.0185 20.6777 60.0702 20.6777C60.4504 20.6777 60.7162 20.5974 60.8676 20.4369C61.0226 20.28 61.1001 20.0429 61.1001 19.7255V10.9422ZM62.2741 9.85863C61.9271 9.85863 61.6281 9.74371 61.377 9.51386C61.126 9.28037 61.0005 9.00128 61.0005 8.67658C61.0005 8.35553 61.126 8.08008 61.377 7.85024C61.6281 7.61675 61.9271 7.5 62.2741 7.5C62.6285 7.5 62.9294 7.61675 63.1767 7.85024C63.4278 8.08008 63.5533 8.35553 63.5533 8.67658C63.5533 9.00128 63.4278 9.28037 63.1767 9.51386C62.9294 9.74371 62.6285 9.85863 62.2741 9.85863Z" fill="white"/>
<path d="M69.2251 19.512C68.3502 19.512 67.5971 19.3369 66.9658 18.9867C66.3382 18.6328 65.8546 18.133 65.515 17.4872C65.1753 16.8378 65.0055 16.0699 65.0055 15.1833C65.0055 14.3187 65.1753 13.5598 65.515 12.9068C65.8546 12.2537 66.3327 11.7448 66.9492 11.38C67.5694 11.0151 68.2967 10.8327 69.131 10.8327C69.6921 10.8327 70.2145 10.9221 70.6981 11.1009C71.1854 11.276 71.61 11.5405 71.9718 11.8944C72.3372 12.2483 72.6215 12.6934 72.8245 13.2297C73.0276 13.7623 73.1291 14.3862 73.1291 15.1012V15.7415H65.9469V14.2968H70.9086C70.9086 13.9611 70.8347 13.6638 70.687 13.4048C70.5394 13.1457 70.3345 12.9433 70.0724 12.7973C69.814 12.6478 69.5131 12.573 69.1698 12.573C68.8117 12.573 68.4942 12.6551 68.2173 12.8192C67.9441 12.9798 67.73 13.1968 67.5749 13.4704C67.4199 13.7404 67.3405 14.0414 67.3368 14.3734V15.747C67.3368 16.1629 67.4144 16.5223 67.5694 16.8251C67.7281 17.1279 67.9515 17.3614 68.2394 17.5255C68.5274 17.6897 68.8689 17.7718 69.2639 17.7718C69.526 17.7718 69.766 17.7353 69.9838 17.6623C70.2016 17.5894 70.388 17.4799 70.5431 17.334C70.6981 17.1881 70.8163 17.0093 70.8975 16.7977L73.0793 16.94C72.9685 17.458 72.7415 17.9104 72.3982 18.2972C72.0585 18.6802 71.6192 18.9794 71.0802 19.1946C70.5449 19.4062 69.9266 19.512 69.2251 19.512Z" fill="white"/>
<path d="M78.5116 19.512C77.6404 19.512 76.891 19.3296 76.2634 18.9648C75.6395 18.5963 75.1596 18.0856 74.8236 17.4325C74.4914 16.7795 74.3252 16.0279 74.3252 15.1779C74.3252 14.3169 74.4932 13.5617 74.8291 12.9123C75.1688 12.2592 75.6506 11.7503 76.2744 11.3854C76.8983 11.017 77.6404 10.8327 78.5005 10.8327C79.2426 10.8327 79.8923 10.9659 80.4498 11.2322C81.0072 11.4985 81.4484 11.8725 81.7732 12.3541C82.0981 12.8356 82.2772 13.4011 82.3104 14.0505H80.0843C80.0215 13.631 79.8554 13.2935 79.5859 13.0381C79.3201 12.7791 78.9712 12.6496 78.5393 12.6496C78.1738 12.6496 77.8545 12.7481 77.5813 12.9451C77.3118 13.1385 77.1014 13.4212 76.95 13.7933C76.7987 14.1655 76.723 14.616 76.723 15.145C76.723 15.6813 76.7968 16.1374 76.9445 16.5131C77.0959 16.8889 77.3081 17.1753 77.5813 17.3723C77.8545 17.5693 78.1738 17.6678 78.5393 17.6678C78.8088 17.6678 79.0506 17.6131 79.2647 17.5036C79.4825 17.3942 79.6616 17.2355 79.8019 17.0275C79.9459 16.8159 80.04 16.5624 80.0843 16.2669H82.3104C82.2735 16.909 82.0963 17.4745 81.7788 17.9633C81.465 18.4486 81.0312 18.828 80.4775 19.1016C79.9237 19.3752 79.2684 19.512 78.5116 19.512Z" fill="white"/>
<path d="M88.3449 10.9422V12.6934H83.2227V10.9422H88.3449ZM84.3856 8.92831H86.7446V16.7649C86.7446 16.9801 86.7778 17.1479 86.8443 17.2683C86.9107 17.3851 87.003 17.4672 87.1211 17.5146C87.243 17.562 87.3833 17.5857 87.542 17.5857C87.6528 17.5857 87.7635 17.5766 87.8743 17.5584C87.985 17.5365 88.0699 17.5201 88.129 17.5091L88.5 19.2439C88.3819 19.2804 88.2157 19.3223 88.0016 19.3698C87.7875 19.4208 87.5272 19.4518 87.2208 19.4628C86.6523 19.4847 86.1539 19.4099 85.7257 19.2384C85.3011 19.0669 84.9707 18.8006 84.7345 18.4394C84.4982 18.0783 84.3819 17.6222 84.3856 17.0713V8.92831Z" fill="white"/>
<defs>
<linearGradient id="paint0_linear_1038_24769" x1="12.9392" y1="7.16602" x2="12.9392" y2="19.9314" gradientUnits="userSpaceOnUse">
<stop stop-color="#58E1FF"/>
<stop offset="1" stop-color="#3431CE"/>
</linearGradient>
<linearGradient id="paint1_linear_1038_24769" x1="17.5" y1="0.5" x2="17.5" y2="26.5" gradientUnits="userSpaceOnUse">
<stop stop-color="#58E1FF"/>
<stop offset="1" stop-color="#3431CE"/>
</linearGradient>
<linearGradient id="paint2_linear_1038_24769" x1="8.5" y1="0.5" x2="8.5" y2="26.5" gradientUnits="userSpaceOnUse">
<stop stop-color="#DCE0F5"/>
<stop offset="1" stop-color="#93AEF4"/>
</linearGradient>
<linearGradient id="paint3_linear_1038_24769" x1="11.74" y1="0.5" x2="11.74" y2="25.1153" gradientUnits="userSpaceOnUse">
<stop stop-color="#9CCAF5"/>
<stop offset="1" stop-color="#8098EC"/>
</linearGradient>
<linearGradient id="paint4_linear_1038_24769" x1="119.933" y1="-3.38672" x2="119.933" y2="59" gradientUnits="userSpaceOnUse">
<stop offset="0.315336" stop-color="#55D1FA"/>
<stop offset="1" stop-color="#363AD1"/>
</linearGradient>
<linearGradient id="paint5_linear_1038_24769" x1="119.933" y1="-3.38672" x2="119.933" y2="59" gradientUnits="userSpaceOnUse">
<stop offset="0.315336" stop-color="#55D1FA"/>
<stop offset="1" stop-color="#363AD1"/>
</linearGradient>
<linearGradient id="paint6_linear_1038_24769" x1="119.933" y1="-3.38672" x2="119.933" y2="59" gradientUnits="userSpaceOnUse">
<stop offset="0.315336" stop-color="#55D1FA"/>
<stop offset="1" stop-color="#363AD1"/>
</linearGradient>
<linearGradient id="paint7_linear_1038_24769" x1="119.933" y1="-3.38672" x2="119.933" y2="59" gradientUnits="userSpaceOnUse">
<stop offset="0.315336" stop-color="#55D1FA"/>
<stop offset="1" stop-color="#363AD1"/>
</linearGradient>
<linearGradient id="paint8_linear_1038_24769" x1="119.933" y1="-3.38672" x2="119.933" y2="59" gradientUnits="userSpaceOnUse">
<stop offset="0.315336" stop-color="#55D1FA"/>
<stop offset="1" stop-color="#363AD1"/>
</linearGradient>
<linearGradient id="paint9_linear_1038_24769" x1="120" y1="7.5" x2="120" y2="29" gradientUnits="userSpaceOnUse">
<stop stop-color="#58E1FF"/>
<stop offset="1" stop-color="#3431CE"/>
</linearGradient>
<linearGradient id="paint10_linear_1038_24769" x1="120" y1="7.5" x2="120" y2="29" gradientUnits="userSpaceOnUse">
<stop stop-color="#58E1FF"/>
<stop offset="1" stop-color="#3431CE"/>
</linearGradient>
<linearGradient id="paint11_linear_1038_24769" x1="120" y1="7.5" x2="120" y2="29" gradientUnits="userSpaceOnUse">
<stop stop-color="#58E1FF"/>
<stop offset="1" stop-color="#3431CE"/>
</linearGradient>
<linearGradient id="paint12_linear_1038_24769" x1="120" y1="7.5" x2="120" y2="29" gradientUnits="userSpaceOnUse">
<stop stop-color="#58E1FF"/>
<stop offset="1" stop-color="#3431CE"/>
</linearGradient>
<linearGradient id="paint13_linear_1038_24769" x1="120" y1="7.5" x2="120" y2="29" gradientUnits="userSpaceOnUse">
<stop stop-color="#58E1FF"/>
<stop offset="1" stop-color="#3431CE"/>
</linearGradient>
</defs>
</svg>
