<svg width="190" height="30" viewBox="0 0 190 30" fill="none" xmlns="http://www.w3.org/2000/svg">
<path d="M14.6748 3.05176e-05L19.8674 7.52779L28.6314 10.1401L23.0766 17.4048L23.3004 26.547L14.6748 23.5091L6.04917 26.547L6.27295 17.4048L0.718236 10.1401L9.48217 7.52779L14.6748 3.05176e-05Z" fill="#9082A2"/>
<path d="M54.8379 0L60.0305 7.52776L68.7944 10.14L63.2397 17.4047L63.4635 26.547L54.8379 23.509L46.2123 26.547L46.436 17.4047L40.8813 10.14L49.6453 7.52776L54.8379 0Z" fill="#9082A2"/>
<path d="M94.9999 0L100.192 7.52776L108.956 10.14L103.402 17.4047L103.625 26.547L94.9999 23.509L86.3742 26.547L86.598 17.4047L81.0433 10.14L89.8072 7.52776L94.9999 0Z" fill="#9082A2"/>
<path d="M135.163 0L140.356 7.52776L149.12 10.14L143.565 17.4047L143.789 26.547L135.163 23.509L126.537 26.547L126.761 17.4047L121.206 10.14L129.97 7.52776L135.163 0Z" fill="#9082A2"/>
<path d="M175.325 3.05176e-05L180.518 7.52779L189.282 10.1401L183.727 17.4048L183.951 26.547L175.325 23.5091L166.7 26.547L166.923 17.4048L161.369 10.1401L170.133 7.52779L175.325 3.05176e-05Z" fill="#9082A2"/>
</svg>
