<svg width="16" height="18" viewBox="0 0 16 18" fill="none" xmlns="http://www.w3.org/2000/svg">
<path d="M0 6.4C0 4.15979 0 3.03969 0.435974 2.18404C0.819467 1.43139 1.43139 0.819467 2.18404 0.435974C3.03969 0 4.15979 0 6.4 0H9.6C11.8402 0 12.9603 0 13.816 0.435974C14.5686 0.819467 15.1805 1.43139 15.564 2.18404C16 3.03969 16 4.15979 16 6.4V11.6C16 13.8402 16 14.9603 15.564 15.816C15.1805 16.5686 14.5686 17.1805 13.816 17.564C12.9603 18 11.8402 18 9.6 18H6.4C4.15979 18 3.03969 18 2.18404 17.564C1.43139 17.1805 0.819467 16.5686 0.435974 15.816C0 14.9603 0 13.8402 0 11.6V6.4Z" fill="#1D6DE3"/>
<path d="M6.74022 6.4C6.70289 6.4 6.68422 6.43733 6.68422 6.512V11.384C6.68422 11.4213 6.70289 11.4649 6.74022 11.5147C6.74022 11.5396 6.78377 11.552 6.87089 11.552L7.44955 11.608V12H5.00422V11.608L5.56422 11.552H5.65755C5.68244 11.552 5.69489 11.5396 5.69489 11.5147C5.71977 11.4898 5.73222 11.4462 5.73222 11.384V6.4C5.68244 6.35022 5.62644 6.32533 5.56422 6.32533L5.00422 6.26933V5.85867H7.44955V6.26933L6.87089 6.32533C6.78377 6.32533 6.74022 6.35022 6.74022 6.4ZM10.366 6.4C10.3287 6.4 10.31 6.43733 10.31 6.512V11.384C10.31 11.4213 10.3287 11.4649 10.366 11.5147C10.366 11.5396 10.4096 11.552 10.4967 11.552L11.0753 11.608V12H8.63V11.608L9.19 11.552H9.28333C9.30822 11.552 9.32067 11.5396 9.32067 11.5147C9.34556 11.4898 9.358 11.4462 9.358 11.384V6.4C9.30822 6.35022 9.25222 6.32533 9.19 6.32533L8.63 6.26933V5.85867H11.0753V6.26933L10.4967 6.32533C10.4096 6.32533 10.366 6.35022 10.366 6.4Z" fill="white"/>
<path d="M6.74022 6.4V6.6H6.94022V6.4H6.74022ZM6.74022 11.5147H6.94022V11.448L6.90022 11.3947L6.74022 11.5147ZM6.87089 11.552L6.89015 11.3529L6.88054 11.352H6.87089V11.552ZM7.44955 11.608H7.64955V11.4264L7.46882 11.4089L7.44955 11.608ZM7.44955 12V12.2H7.64955V12H7.44955ZM5.00422 12H4.80422V12.2H5.00422V12ZM5.00422 11.608L4.98432 11.409L4.80422 11.427V11.608H5.00422ZM5.56422 11.552V11.352H5.55424L5.54432 11.353L5.56422 11.552ZM5.69489 11.5147L5.55346 11.3732L5.49489 11.4318V11.5147H5.69489ZM5.73222 6.4H5.93222V6.31716L5.87364 6.25858L5.73222 6.4ZM5.56422 6.32533L5.54432 6.52434L5.55424 6.52533H5.56422V6.32533ZM5.00422 6.26933H4.80422V6.45033L4.98432 6.46834L5.00422 6.26933ZM5.00422 5.85867V5.65867H4.80422V5.85867H5.00422ZM7.44955 5.85867H7.64955V5.65867H7.44955V5.85867ZM7.44955 6.26933L7.46882 6.4684L7.64955 6.45091V6.26933H7.44955ZM6.87089 6.32533V6.52533H6.88054L6.89015 6.5244L6.87089 6.32533ZM6.74022 6.2C6.69589 6.2 6.64818 6.21166 6.60478 6.24059C6.56263 6.26869 6.53586 6.3055 6.51933 6.33856C6.4891 6.39902 6.48422 6.46445 6.48422 6.512H6.88422C6.88422 6.50678 6.88438 6.50282 6.88459 6.5C6.88479 6.49715 6.885 6.49586 6.885 6.49588C6.88499 6.49592 6.88491 6.4964 6.88471 6.49726C6.88452 6.49812 6.88419 6.49946 6.88366 6.50122C6.88264 6.50461 6.88067 6.5103 6.8771 6.51744C6.86991 6.53184 6.85481 6.55465 6.82666 6.57341C6.79726 6.59301 6.76588 6.6 6.74022 6.6V6.2ZM6.48422 6.512V11.384H6.88422V6.512H6.48422ZM6.48422 11.384C6.48422 11.485 6.53267 11.5713 6.58022 11.6347L6.90022 11.3947C6.88832 11.3788 6.88351 11.3693 6.88205 11.3659C6.88062 11.3625 6.88422 11.3693 6.88422 11.384H6.48422ZM6.54022 11.5147C6.54022 11.5885 6.57597 11.6466 6.61823 11.6829C6.65456 11.714 6.69367 11.728 6.71794 11.735C6.76722 11.7491 6.82252 11.752 6.87089 11.752V11.352C6.83214 11.352 6.8221 11.3487 6.82783 11.3504C6.83032 11.3511 6.8531 11.3573 6.87854 11.3791C6.89251 11.3911 6.90866 11.409 6.92115 11.434C6.93399 11.4597 6.94022 11.4874 6.94022 11.5147H6.54022ZM6.85162 11.7511L7.43029 11.8071L7.46882 11.4089L6.89015 11.3529L6.85162 11.7511ZM7.24955 11.608V12H7.64955V11.608H7.24955ZM7.44955 11.8H5.00422V12.2H7.44955V11.8ZM5.20422 12V11.608H4.80422V12H5.20422ZM5.02412 11.807L5.58412 11.751L5.54432 11.353L4.98432 11.409L5.02412 11.807ZM5.56422 11.752H5.65755V11.352H5.56422V11.752ZM5.65755 11.752C5.70083 11.752 5.77002 11.741 5.82697 11.6841C5.88393 11.6271 5.89489 11.5579 5.89489 11.5147H5.49489C5.49489 11.4963 5.49962 11.4458 5.54413 11.4012C5.58864 11.3567 5.63917 11.352 5.65755 11.352V11.752ZM5.83631 11.6561C5.91878 11.5736 5.93222 11.4618 5.93222 11.384H5.53222C5.53222 11.393 5.53176 11.3995 5.53126 11.4038C5.53074 11.4081 5.53028 11.4094 5.53058 11.4084C5.53108 11.4066 5.53594 11.3908 5.55346 11.3732L5.83631 11.6561ZM5.93222 11.384V6.4H5.53222V11.384H5.93222ZM5.87364 6.25858C5.79172 6.17666 5.68662 6.12533 5.56422 6.12533V6.52533C5.56779 6.52533 5.56963 6.52586 5.57166 6.52676C5.57415 6.52787 5.58072 6.53134 5.5908 6.54142L5.87364 6.25858ZM5.58412 6.12633L5.02412 6.07033L4.98432 6.46834L5.54432 6.52434L5.58412 6.12633ZM5.20422 6.26933V5.85867H4.80422V6.26933H5.20422ZM5.00422 6.05867H7.44955V5.65867H5.00422V6.05867ZM7.24955 5.85867V6.26933H7.64955V5.85867H7.24955ZM7.43029 6.07026L6.85162 6.12626L6.89015 6.5244L7.46882 6.4684L7.43029 6.07026ZM6.87089 6.12533C6.81484 6.12533 6.74044 6.13219 6.67366 6.17035C6.59017 6.21806 6.54022 6.30265 6.54022 6.4H6.94022C6.94022 6.41752 6.9361 6.44247 6.92114 6.46811C6.90623 6.49367 6.88675 6.50928 6.87211 6.51765C6.8587 6.52531 6.84988 6.52671 6.85114 6.52647C6.85203 6.5263 6.85805 6.52533 6.87089 6.52533V6.12533ZM10.366 6.4V6.6H10.566V6.4H10.366ZM10.366 11.5147H10.566V11.448L10.526 11.3947L10.366 11.5147ZM10.4967 11.552L10.5159 11.3529L10.5063 11.352H10.4967V11.552ZM11.0753 11.608H11.2753V11.4264L11.0946 11.4089L11.0753 11.608ZM11.0753 12V12.2H11.2753V12H11.0753ZM8.63 12H8.43V12.2H8.63V12ZM8.63 11.608L8.6101 11.409L8.43 11.427V11.608H8.63ZM9.19 11.552V11.352H9.18003L9.1701 11.353L9.19 11.552ZM9.32067 11.5147L9.17925 11.3732L9.12067 11.4318V11.5147H9.32067ZM9.358 6.4H9.558V6.31716L9.49942 6.25858L9.358 6.4ZM9.19 6.32533L9.1701 6.52434L9.18003 6.52533H9.19V6.32533ZM8.63 6.26933H8.43V6.45033L8.6101 6.46834L8.63 6.26933ZM8.63 5.85867V5.65867H8.43V5.85867H8.63ZM11.0753 5.85867H11.2753V5.65867H11.0753V5.85867ZM11.0753 6.26933L11.0946 6.4684L11.2753 6.45091V6.26933H11.0753ZM10.4967 6.32533V6.52533H10.5063L10.5159 6.5244L10.4967 6.32533ZM10.366 6.2C10.3217 6.2 10.274 6.21166 10.2306 6.24059C10.1884 6.26869 10.1616 6.3055 10.1451 6.33856C10.1149 6.39902 10.11 6.46445 10.11 6.512H10.51C10.51 6.50678 10.5102 6.50282 10.5104 6.5C10.5106 6.49715 10.5108 6.49586 10.5108 6.49588C10.5108 6.49592 10.5107 6.4964 10.5105 6.49726C10.5103 6.49812 10.51 6.49946 10.5094 6.50122C10.5084 6.50461 10.5065 6.5103 10.5029 6.51744C10.4957 6.53184 10.4806 6.55465 10.4524 6.57341C10.423 6.59301 10.3917 6.6 10.366 6.6V6.2ZM10.11 6.512V11.384H10.51V6.512H10.11ZM10.11 11.384C10.11 11.485 10.1585 11.5713 10.206 11.6347L10.526 11.3947C10.5141 11.3788 10.5093 11.3693 10.5078 11.3659C10.5064 11.3625 10.51 11.3693 10.51 11.384H10.11ZM10.166 11.5147C10.166 11.5885 10.2017 11.6466 10.244 11.6829C10.2803 11.714 10.3195 11.728 10.3437 11.735C10.393 11.7491 10.4483 11.752 10.4967 11.752V11.352C10.4579 11.352 10.4479 11.3487 10.4536 11.3504C10.4561 11.3511 10.4789 11.3573 10.5043 11.3791C10.5183 11.3911 10.5344 11.409 10.5469 11.434C10.5598 11.4597 10.566 11.4874 10.566 11.5147H10.166ZM10.4774 11.7511L11.0561 11.8071L11.0946 11.4089L10.5159 11.3529L10.4774 11.7511ZM10.8753 11.608V12H11.2753V11.608H10.8753ZM11.0753 11.8H8.63V12.2H11.0753V11.8ZM8.83 12V11.608H8.43V12H8.83ZM8.6499 11.807L9.2099 11.751L9.1701 11.353L8.6101 11.409L8.6499 11.807ZM9.19 11.752H9.28333V11.352H9.19V11.752ZM9.28333 11.752C9.32661 11.752 9.3958 11.741 9.45275 11.6841C9.50971 11.6271 9.52067 11.5579 9.52067 11.5147H9.12067C9.12067 11.4963 9.1254 11.4458 9.16991 11.4012C9.21443 11.3567 9.26495 11.352 9.28333 11.352V11.752ZM9.46209 11.6561C9.54456 11.5736 9.558 11.4618 9.558 11.384H9.158C9.158 11.393 9.15754 11.3995 9.15704 11.4038C9.15653 11.4081 9.15606 11.4094 9.15636 11.4084C9.15686 11.4066 9.16172 11.3908 9.17925 11.3732L9.46209 11.6561ZM9.558 11.384V6.4H9.158V11.384H9.558ZM9.49942 6.25858C9.41751 6.17666 9.31241 6.12533 9.19 6.12533V6.52533C9.19357 6.52533 9.19541 6.52586 9.19744 6.52676C9.19993 6.52787 9.2065 6.53134 9.21658 6.54142L9.49942 6.25858ZM9.2099 6.12633L8.6499 6.07033L8.6101 6.46834L9.1701 6.52434L9.2099 6.12633ZM8.83 6.26933V5.85867H8.43V6.26933H8.83ZM8.63 6.05867H11.0753V5.65867H8.63V6.05867ZM10.8753 5.85867V6.26933H11.2753V5.85867H10.8753ZM11.0561 6.07026L10.4774 6.12626L10.5159 6.5244L11.0946 6.4684L11.0561 6.07026ZM10.4967 6.12533C10.4406 6.12533 10.3662 6.13219 10.2994 6.17035C10.216 6.21806 10.166 6.30265 10.166 6.4H10.566C10.566 6.41752 10.5619 6.44247 10.5469 6.46811C10.532 6.49367 10.5125 6.50928 10.4979 6.51765C10.4845 6.52531 10.4757 6.52671 10.4769 6.52647C10.4778 6.5263 10.4838 6.52533 10.4967 6.52533V6.12533Z" fill="white"/>
</svg>
