<svg width="16" height="18" viewBox="0 0 16 18" fill="none" xmlns="http://www.w3.org/2000/svg">
<path d="M0 6.4C0 4.15979 0 3.03969 0.435974 2.18404C0.819467 1.43139 1.43139 0.819467 2.18404 0.435974C3.03969 0 4.15979 0 6.4 0H9.6C11.8402 0 12.9603 0 13.816 0.435974C14.5686 0.819467 15.1805 1.43139 15.564 2.18404C16 3.03969 16 4.15979 16 6.4V11.6C16 13.8402 16 14.9603 15.564 15.816C15.1805 16.5686 14.5686 17.1805 13.816 17.564C12.9603 18 11.8402 18 9.6 18H6.4C4.15979 18 3.03969 18 2.18404 17.564C1.43139 17.1805 0.819467 16.5686 0.435974 15.816C0 14.9603 0 13.8402 0 11.6V6.4Z" fill="#1D6DE3"/>
<path d="M6.74022 6.4C6.70289 6.4 6.68422 6.43733 6.68422 6.512V11.384C6.68422 11.4213 6.70289 11.4649 6.74022 11.5147C6.74022 11.5396 6.78377 11.552 6.87089 11.552L7.44955 11.608V12H5.00422V11.608L5.56422 11.552H5.65755C5.68244 11.552 5.69489 11.5396 5.69489 11.5147C5.71977 11.4898 5.73222 11.4462 5.73222 11.384V6.4C5.68244 6.35022 5.62644 6.32533 5.56422 6.32533L5.00422 6.26933V5.85867H7.44955V6.26933L6.87089 6.32533C6.78377 6.32533 6.74022 6.35022 6.74022 6.4ZM10.366 6.4C10.3287 6.4 10.31 6.43733 10.31 6.512V11.384C10.31 11.4213 10.3287 11.4649 10.366 11.5147C10.366 11.5396 10.4096 11.552 10.4967 11.552L11.0753 11.608V12H8.63V11.608L9.19 11.552H9.28333C9.30822 11.552 9.32067 11.5396 9.32067 11.5147C9.34556 11.4898 9.358 11.4462 9.358 11.384V6.4C9.30822 6.35022 9.25222 6.32533 9.19 6.32533L8.63 6.26933V5.85867H11.0753V6.26933L10.4967 6.32533C10.4096 6.32533 10.366 6.35022 10.366 6.4Z" fill="white"/>
<path d="M6.74022 6.4V6.6H6.94022V6.4H6.74022ZM6.74022 11.5147H6.94022V11.448L6.90022 11.3947L6.74022 11.5147ZM6.87089 11.552L6.89015 11.3529L6.88054 11.352H6.87089V11.552ZM7.44955 11.608H7.64955V11.4264L7.46882 11.4089L7.44955 11.608ZM7.44955 12V12.2H7.64955V12H7.44955ZM5.00422 12H4.80422V12.2H5.00422V12ZM5.00422 11.608L4.98432 11.409L4.80422 11.427V11.608H5.00422ZM5.56422 11.552V11.352H5.55424L5.54432 11.353L5.56422 11.552ZM5.69489 11.5147L5.55346 11.3732L5.49489 11.4318V11.5147H5.69489ZM5.73222 6.4H5.93222V6.31716L5.87364 6.25858L5.73222 6.4ZM5.56422 6.32533L5.54432 6.52434L5.55424 6.52533H5.56422V6.32533ZM5.00422 6.26933H4.80422V6.45033L4.98432 6.46834L5.00422 6.26933ZM5.00422 5.85867V5.65867H4.80422V5.85867H5.00422ZM7.44955 5.85867H7.64955V5.65867H7.44955V5.85867ZM7.44955 6.26933L7.46882 6.4684L7.64955 6.45091V6.26933H7.44955ZM6.87089 6.32533V6.52533H6.88054L6.89015 6.5244L6.87089 6.32533ZM6.74022 6.2C6.69589 6.2 6.64818 6.21166 6.60478 6.24059C6.56263 6.26869 6.53586 6.3055 6.51933 6.33856C6.4891 6.39902 6.48422 6.46445 6.48422 6.512H6.88422C6.88422 6.50678 6.88438 6.50282 6.88459 6.5C6.88479 6.49715 6.885 6.49586 6.885 6.49588C6.88499 6.49592 6.88491 6.4964 6.88471 6.49726C6.88452 6.49812 6.88419 6.49946 6.88366 6.50122C6.88264 6.50461 6.88067 6.5103 6.8771 6.51744C6.86991 6.53184 6.85481 6.55465 6.82666 6.57341C6.79726 6.59301 6.76588 6.6 6.74022 6.6V6.2ZM6.48422 6.512V11.384H6.88422V6.512H6.48422ZM6.48422 11.384C6.48422 11.485 6.53267 11.5713 6.58022 11.6347L6.90022 11.3947C6.88832 11.3788 6.88351 11.3693 6.88205 11.3659C6.88062 11.3625 6.88422 11.3693 6.88422 11.384H6.48422ZM6.54022 11.5147C6.54022 11.5885 6.57597 11.6466 6.61823 11.6829C6.65456 11.714 6.69367 11.728 6.71794 11.735C6.76722 11.7491 6.82252 11.752 6.87089 11.752V11.352C6.83214 11.352 6.8221 11.3487 6.82783 11.3504C6.83032 11.3511 6.8531 11.3573 6.87854 11.3791C6.89251 11.3911 6.90866 11.409 6.92115 11.434C6.93399 11.4597 6.94022 11.4874 6.94022 11.5147H6.54022ZM6.85162 11.7511L7.43029 11.8071L7.46882 11.4089L6.89015 11.3529L6.85162 11.7511ZM7.24955 11.608V12H7.64955V11.608H7.24955ZM7.44955 11.8H5.00422V12.2H7.44955V11.8ZM5.20422 12V11.608H4.80422V12H5.20422ZM5.02412 11.807L5.58412 11.751L5.54432 11.353L4.98432 11.409L5.02412 11.807ZM5.56422 11.752H5.65755V11.352H5.56422V11.752ZM5.65755 11.752C5.70083 11.752 5.77002 11.741 5.82697 11.6841C5.88393 11.6271 5.89489 11.5579 5.89489 11.5147H5.49489C5.49489 11.4963 5.49962 11.4458 5.54413 11.4012C5.58864 11.3567 5.63917 11.352 5.65755 11.352V11.752ZM5.83631 11.6561C5.91878 11.5736 5.93222 11.4618 5.93222 11.384H5.53222C5.53222 11.393 5.53176 11.3995 5.53126 11.4038C5.53074 11.4081 5.53028 11.4094 5.53058 11.4084C5.53108 11.4066 5.53594 11.3908 5.55346 11.3732L5.83631 11.6561ZM5.93222 11.384V6.4H5.53222V11.384H5.93222ZM5.87364 6.25858C5.79172 6.17666 5.68662 6.12533 5.56422 6.12533V6.52533C5.56779 6.52533 5.56963 6.52586 5.57166 6.52676C5.57415 6.52787 5.58072 6.53134 5.5908 6.54142L5.87364 6.25858ZM5.58412 6.12633L5.02412 6.07033L4.98432 6.46834L5.54432 6.52434L5.58412 6.12633ZM5.20422 6.26933V5.85867H4.80422V6.26933H5.20422ZM5.00422 6.05867H7.44955V5.65867H5.00422V6.05867ZM7.24955 5.85867V6.26933H7.64955V5.85867H7.24955ZM7.43029 6.07026L6.85162 6.12626L6.89015 6.5244L7.46882 6.4684L7.43029 6.07026ZM6.87089 6.12533C6.81484 6.12533 6.74044 6.13219 6.67366 6.17035C6.59017 6.21806 6.54022 6.30265 6.54022 6.4H6.94022C6.94022 6.41752 6.9361 6.44247 6.92114 6.46811C6.90623 6.49367 6.88675 6.50928 6.87211 6.51765C6.8587 6.52531 6.84988 6.52671 6.85114 6.52647C6.85203 6.5263 6.85805 6.52533 6.87089 6.52533V6.12533ZM10.366 6.4V6.6H10.566V6.4H10.366ZM10.366 11.5147H10.566V11.448L10.526 11.3947L10.366 11.5147ZM10.4967 11.552L10.5159 11.3529L10.5063 11.352H10.4967V11.552ZM11.0753 11.608H11.2753V11.4264L11.0946 11.4089L11.0753 11.608ZM11.0753 12V12.2H11.2753V12H11.0753ZM8.63 12H8.43V12.2H8.63V12ZM8.63 11.608L8.6101 11.409L8.43 11.427V11.608H8.63ZM9.19 11.552V11.352H9.18003L9.1701 11.353L9.19 11.552ZM9.32067 11.5147L9.17925 11.3732L9.12067 11.4318V11.5147H9.32067ZM9.358 6.4H9.558V6.31716L9.49942 6.25858L9.358 6.4ZM9.19 6.32533L9.1701 6.52434L9.18003 6.52533H9.19V6.32533ZM8.63 6.26933H8.43V6.45033L8.6101 6.46834L8.63 6.26933ZM8.63 5.85867V5.65867H8.43V5.85867H8.63ZM11.0753 5.85867H11.2753V5.65867H11.0753V5.85867ZM11.0753 6.26933L11.0946 6.4684L11.2753 6.45091V6.26933H11.0753ZM10.4967 6.32533V6.52533H10.5063L10.5159 6.5244L10.4967 6.32533ZM10.366 6.2C10.3217 6.2 10.274 6.21166 10.2306 6.24059C10.1884 6.26869 10.1616 6.3055 10.1451 6.33856C10.1149 6.39902 10.11 6.46445 10.11 6.512H10.51C10.51 6.50678 10.5102 6.50282 10.5104 6.5C10.5106 6.49715 10.5108 6.49586 10.5108 6.49588C10.5108 6.49592 10.5107 6.4964 10.5105 6.49726C10.5103 6.49812 10.51 6.49946 10.5094 6.50122C10.5084 6.50461 10.5065 6.5103 10.5029 6.51744C10.4957 6.53184 10.4806 6.55465 10.4524 6.57341C10.423 6.59301 10.3917 6.6 10.366 6.6V6.2ZM10.11 6.512V11.384H10.51V6.512H10.11ZM10.11 11.384C10.11 11.485 10.1585 11.5713 10.206 11.6347L10.526 11.3947C10.5141 11.3788 10.5093 11.3693 10.5078 11.3659C10.5064 11.3625 10.51 11.3693 10.51 11.384H10.11ZM10.166 11.5147C10.166 11.5885 10.2017 11.6466 10.244 11.6829C10.2803 11.714 10.3195 11.728 10.3437 11.735C10.393 11.7491 10.4483 11.752 10.4967 11.752V11.352C10.4579 11.352 10.4479 11.3487 10.4536 11.3504C10.4561 11.3511 10.4789 11.3573 10.5043 11.3791C10.5183 11.3911 10.5344 11.409 10.5469 11.434C10.5598 11.4597 10.566 11.4874 10.566 11.5147H10.166ZM10.4774 11.7511L11.0561 11.8071L11.0946 11.4089L10.5159 11.3529L10.4774 11.7511ZM10.8753 11.608V12H11.2753V11.608H10.8753ZM11.0753 11.8H8.63V12.2H11.0753V11.8ZM8.83 12V11.608H8.43V12H8.83ZM8.6499 11.807L9.2099 11.751L9.1701 11.353L8.6101 11.409L8.6499 11.807ZM9.19 11.752H9.28333V11.352H9.19V11.752ZM9.28333 11.752C9.32661 11.752 9.3958 11.741 9.45275 11.6841C9.50971 11.6271 9.52067 11.5579 9.52067 11.5147H9.12067C9.12067 11.4963 9.1254 11.4458 9.16991 11.4012C9.21443 11.3567 9.26495 11.352 9.28333 11.352V11.752ZM9.46209 11.6561C9.54456 11.5736 9.558 11.4618 9.558 11.384H9.158C9.158 11.393 9.15754 11.3995 9.15704 11.4038C9.15653 11.4081 9.15606 11.4094 9.15636 11.4084C9.15686 11.4066 9.16172 11.3908 9.17925 11.3732L9.46209 11.6561ZM9.558 11.384V6.4H9.158V11.384H9.558ZM9.49942 6.25858C9.41751 6.17666 9.31241 6.12533 9.19 6.12533V6.52533C9.19357 6.52533 9.19541 6.52586 9.19744 6.52676C9.19993 6.52787 9.2065 6.53134 9.21658 6.54142L9.49942 6.25858ZM9.2099 6.12633L8.6499 6.07033L8.6101 6.46834L9.1701 6.52434L9.2099 6.12633ZM8.83 6.26933V5.85867H8.43V6.26933H8.83ZM8.63 6.05867H11.0753V5.65867H8.63V6.05867ZM10.8753 5.85867V6.26933H11.2753V5.85867H10.8753ZM11.0561 6.07026L10.4774 6.12626L10.5159 6.5244L11.0946 6.4684L11.0561 6.07026ZM10.4967 6.12533C10.4406 6.12533 10.3662 6.13219 10.2994 6.17035C10.216 6.21806 10.166 6.30265 10.166 6.4H10.566C10.566 6.41752 10.5619 6.44247 10.5469 6.46811C10.532 6.49367 10.5125 6.50928 10.4979 6.51765C10.4845 6.52531 10.4757 6.52671 10.4769 6.52647C10.4778 6.5263 10.4838 6.52533 10.4967 6.52533V6.12533Z" fill="white"/>
<path d="M0 6.4C0 4.15979 0 3.03969 0.435974 2.18404C0.819467 1.43139 1.43139 0.819467 2.18404 0.435974C3.03969 0 4.15979 0 6.4 0H9.6C11.8402 0 12.9603 0 13.816 0.435974C14.5686 0.819467 15.1805 1.43139 15.564 2.18404C16 3.03969 16 4.15979 16 6.4V11.6C16 13.8402 16 14.9603 15.564 15.816C15.1805 16.5686 14.5686 17.1805 13.816 17.564C12.9603 18 11.8402 18 9.6 18H6.4C4.15979 18 3.03969 18 2.18404 17.564C1.43139 17.1805 0.819467 16.5686 0.435974 15.816C0 14.9603 0 13.8402 0 11.6V6.4Z" fill="#B430D6"/>
<path d="M5.06541 6.4C5.02808 6.4 5.00941 6.43733 5.00941 6.512V11.384C5.00941 11.4213 5.02808 11.4649 5.06541 11.5147C5.06541 11.5396 5.10897 11.552 5.19608 11.552L5.77475 11.608V12H3.32941V11.608L3.88941 11.552H3.98275C4.00764 11.552 4.02008 11.5396 4.02008 11.5147C4.04497 11.4898 4.05741 11.4462 4.05741 11.384V6.4C4.00764 6.35022 3.95164 6.32533 3.88941 6.32533L3.32941 6.26933V5.85867H5.77475V6.26933L5.19608 6.32533C5.10897 6.32533 5.06541 6.35022 5.06541 6.4ZM10.0912 12.168H9.40053L7.2912 6.344L6.74986 6.26933V5.85867H8.95253V6.26933L8.4112 6.32533C8.36142 6.32533 8.33653 6.35022 8.33653 6.4C8.31164 6.4 8.2992 6.42489 8.2992 6.47467L9.9232 10.992L11.4725 6.47467C11.485 6.46222 11.4912 6.44978 11.4912 6.43733C11.4912 6.41244 11.4725 6.38756 11.4352 6.36267C11.4103 6.33778 11.3854 6.32533 11.3605 6.32533L10.8565 6.26933V5.85867H12.6859V6.26933L12.1072 6.344L10.0912 12.168Z" fill="white"/>
<path d="M5.06541 6.4V6.6H5.26541V6.4H5.06541ZM5.06541 11.5147H5.26541V11.448L5.22541 11.3947L5.06541 11.5147ZM5.19608 11.552L5.21535 11.3529L5.20574 11.352H5.19608V11.552ZM5.77475 11.608H5.97475V11.4264L5.79401 11.4089L5.77475 11.608ZM5.77475 12V12.2H5.97475V12H5.77475ZM3.32941 12H3.12941V12.2H3.32941V12ZM3.32941 11.608L3.30951 11.409L3.12941 11.427V11.608H3.32941ZM3.88941 11.552V11.352H3.87944L3.86951 11.353L3.88941 11.552ZM4.02008 11.5147L3.87866 11.3732L3.82008 11.4318V11.5147H4.02008ZM4.05741 6.4H4.25741V6.31716L4.19884 6.25858L4.05741 6.4ZM3.88941 6.32533L3.86951 6.52434L3.87944 6.52533H3.88941V6.32533ZM3.32941 6.26933H3.12941V6.45033L3.30951 6.46834L3.32941 6.26933ZM3.32941 5.85867V5.65867H3.12941V5.85867H3.32941ZM5.77475 5.85867H5.97475V5.65867H5.77475V5.85867ZM5.77475 6.26933L5.79401 6.4684L5.97475 6.45091V6.26933H5.77475ZM5.19608 6.32533V6.52533H5.20574L5.21535 6.5244L5.19608 6.32533ZM5.06541 6.2C5.02108 6.2 4.97337 6.21166 4.92997 6.24059C4.88783 6.26869 4.86106 6.3055 4.84453 6.33856C4.8143 6.39902 4.80941 6.46445 4.80941 6.512H5.20941C5.20941 6.50678 5.20958 6.50282 5.20978 6.5C5.20998 6.49715 5.2102 6.49586 5.21019 6.49588C5.21019 6.49592 5.21011 6.4964 5.20991 6.49726C5.20971 6.49812 5.20938 6.49946 5.20885 6.50122C5.20784 6.50461 5.20587 6.5103 5.2023 6.51744C5.1951 6.53184 5.18 6.55465 5.15185 6.57341C5.12246 6.59301 5.09108 6.6 5.06541 6.6V6.2ZM4.80941 6.512V11.384H5.20941V6.512H4.80941ZM4.80941 11.384C4.80941 11.485 4.85787 11.5713 4.90541 11.6347L5.22541 11.3947C5.21351 11.3788 5.2087 11.3693 5.20724 11.3659C5.20581 11.3625 5.20941 11.3693 5.20941 11.384H4.80941ZM4.86541 11.5147C4.86541 11.5885 4.90116 11.6466 4.94342 11.6829C4.97975 11.714 5.01887 11.728 5.04314 11.735C5.09242 11.7491 5.14772 11.752 5.19608 11.752V11.352C5.15733 11.352 5.1473 11.3487 5.15303 11.3504C5.15552 11.3511 5.1783 11.3573 5.20374 11.3791C5.21771 11.3911 5.23386 11.409 5.24634 11.434C5.25918 11.4597 5.26541 11.4874 5.26541 11.5147H4.86541ZM5.17682 11.7511L5.75548 11.8071L5.79401 11.4089L5.21535 11.3529L5.17682 11.7511ZM5.57475 11.608V12H5.97475V11.608H5.57475ZM5.77475 11.8H3.32941V12.2H5.77475V11.8ZM3.52941 12V11.608H3.12941V12H3.52941ZM3.34931 11.807L3.90931 11.751L3.86951 11.353L3.30951 11.409L3.34931 11.807ZM3.88941 11.752H3.98275V11.352H3.88941V11.752ZM3.98275 11.752C4.02602 11.752 4.09521 11.741 4.15217 11.6841C4.20913 11.6271 4.22008 11.5579 4.22008 11.5147H3.82008C3.82008 11.4963 3.82481 11.4458 3.86933 11.4012C3.91384 11.3567 3.96436 11.352 3.98275 11.352V11.752ZM4.1615 11.6561C4.24398 11.5736 4.25741 11.4618 4.25741 11.384H3.85741C3.85741 11.393 3.85696 11.3995 3.85645 11.4038C3.85594 11.4081 3.85547 11.4094 3.85578 11.4084C3.85628 11.4066 3.86114 11.3908 3.87866 11.3732L4.1615 11.6561ZM4.25741 11.384V6.4H3.85741V11.384H4.25741ZM4.19884 6.25858C4.11692 6.17666 4.01182 6.12533 3.88941 6.12533V6.52533C3.89298 6.52533 3.89483 6.52586 3.89685 6.52676C3.89935 6.52787 3.90591 6.53134 3.91599 6.54142L4.19884 6.25858ZM3.90931 6.12633L3.34931 6.07033L3.30951 6.46834L3.86951 6.52434L3.90931 6.12633ZM3.52941 6.26933V5.85867H3.12941V6.26933H3.52941ZM3.32941 6.05867H5.77475V5.65867H3.32941V6.05867ZM5.57475 5.85867V6.26933H5.97475V5.85867H5.57475ZM5.75548 6.07026L5.17682 6.12626L5.21535 6.5244L5.79401 6.4684L5.75548 6.07026ZM5.19608 6.12533C5.14003 6.12533 5.06563 6.13219 4.99885 6.17035C4.91536 6.21806 4.86541 6.30265 4.86541 6.4H5.26541C5.26541 6.41752 5.26129 6.44247 5.24634 6.46811C5.23142 6.49367 5.21195 6.50928 5.19731 6.51765C5.18389 6.52531 5.17508 6.52671 5.17634 6.52647C5.17723 6.5263 5.18324 6.52533 5.19608 6.52533V6.12533ZM10.0912 12.168V12.368H10.2336L10.2802 12.2334L10.0912 12.168ZM9.40053 12.168L9.21248 12.2361L9.26025 12.368H9.40053V12.168ZM7.2912 6.344L7.47924 6.27589L7.43813 6.16237L7.31852 6.14588L7.2912 6.344ZM6.74986 6.26933H6.54986V6.44364L6.72253 6.46746L6.74986 6.26933ZM6.74986 5.85867V5.65867H6.54986V5.85867H6.74986ZM8.95253 5.85867H9.15253V5.65867H8.95253V5.85867ZM8.95253 6.26933L8.97311 6.46827L9.15253 6.44971V6.26933H8.95253ZM8.4112 6.32533V6.52533H8.42151L8.43178 6.52427L8.4112 6.32533ZM8.33653 6.4V6.6H8.53653V6.4H8.33653ZM8.2992 6.47467H8.0992V6.50952L8.11099 6.54233L8.2992 6.47467ZM9.9232 10.992L9.73499 11.0597L9.92764 11.5955L10.1124 11.0569L9.9232 10.992ZM11.4725 6.47467L11.3311 6.33325L11.2984 6.36598L11.2833 6.40978L11.4725 6.47467ZM11.4352 6.36267L11.2938 6.50409L11.3078 6.51809L11.3243 6.52908L11.4352 6.36267ZM11.3605 6.32533L11.3384 6.52411L11.3495 6.52533H11.3605V6.32533ZM10.8565 6.26933H10.6565V6.44834L10.8344 6.46811L10.8565 6.26933ZM10.8565 5.85867V5.65867H10.6565V5.85867H10.8565ZM12.6859 5.85867H12.8859V5.65867H12.6859V5.85867ZM12.6859 6.26933L12.7115 6.46769L12.8859 6.44519V6.26933H12.6859ZM12.1072 6.344L12.0816 6.14564L11.9587 6.1615L11.9182 6.27858L12.1072 6.344ZM10.0912 11.968H9.40053V12.368H10.0912V11.968ZM9.58858 12.0999L7.47924 6.27589L7.10315 6.41211L9.21248 12.2361L9.58858 12.0999ZM7.31852 6.14588L6.77719 6.07121L6.72253 6.46746L7.26387 6.54212L7.31852 6.14588ZM6.94986 6.26933V5.85867H6.54986V6.26933H6.94986ZM6.74986 6.05867H8.95253V5.65867H6.74986V6.05867ZM8.75253 5.85867V6.26933H9.15253V5.85867H8.75253ZM8.93195 6.07039L8.39062 6.12639L8.43178 6.52427L8.97311 6.46827L8.93195 6.07039ZM8.4112 6.12533C8.35548 6.12533 8.27695 6.1394 8.21377 6.20258C8.15059 6.26576 8.13653 6.34428 8.13653 6.4H8.53653C8.53653 6.40594 8.53491 6.44713 8.49662 6.48542C8.45833 6.52371 8.41714 6.52533 8.4112 6.52533V6.12533ZM8.33653 6.2C8.29531 6.2 8.25032 6.21088 8.20926 6.23826C8.16944 6.2648 8.14462 6.29928 8.12964 6.32922C8.10252 6.38346 8.0992 6.43956 8.0992 6.47467H8.4992C8.4992 6.45999 8.50209 6.47876 8.48741 6.50811C8.47866 6.52561 8.46162 6.55076 8.43114 6.57108C8.3994 6.59223 8.3653 6.6 8.33653 6.6V6.2ZM8.11099 6.54233L9.73499 11.0597L10.1114 10.9243L8.4874 6.40701L8.11099 6.54233ZM10.1124 11.0569L11.6617 6.53955L11.2833 6.40978L9.73401 10.9271L10.1124 11.0569ZM11.6139 6.61609C11.6482 6.58184 11.6912 6.52153 11.6912 6.43733H11.2912C11.2912 6.37803 11.3218 6.3426 11.3311 6.33325L11.6139 6.61609ZM11.6912 6.43733C11.6912 6.30627 11.5955 6.2292 11.5461 6.19626L11.3243 6.52908C11.3317 6.53402 11.326 6.5318 11.3172 6.52C11.3072 6.50661 11.2912 6.47799 11.2912 6.43733H11.6912ZM11.5766 6.22125C11.5299 6.17456 11.4572 6.12533 11.3605 6.12533V6.52533C11.3137 6.52533 11.2907 6.501 11.2938 6.50409L11.5766 6.22125ZM11.3826 6.12656L10.8786 6.07056L10.8344 6.46811L11.3384 6.52411L11.3826 6.12656ZM11.0565 6.26933V5.85867H10.6565V6.26933H11.0565ZM10.8565 6.05867H12.6859V5.65867H10.8565V6.05867ZM12.4859 5.85867V6.26933H12.8859V5.85867H12.4859ZM12.6603 6.07098L12.0816 6.14564L12.1328 6.54236L12.7115 6.46769L12.6603 6.07098ZM11.9182 6.27858L9.9022 12.1026L10.2802 12.2334L12.2962 6.40942L11.9182 6.27858Z" fill="white"/>
</svg>
