<svg width="16" height="18" viewBox="0 0 16 18" fill="none" xmlns="http://www.w3.org/2000/svg">
<path d="M0 6.4C0 4.15979 0 3.03969 0.435974 2.18404C0.819467 1.43139 1.43139 0.819467 2.18404 0.435974C3.03969 0 4.15979 0 6.4 0H9.6C11.8402 0 12.9603 0 13.816 0.435974C14.5686 0.819467 15.1805 1.43139 15.564 2.18404C16 3.03969 16 4.15979 16 6.4V11.6C16 13.8402 16 14.9603 15.564 15.816C15.1805 16.5686 14.5686 17.1805 13.816 17.564C12.9603 18 11.8402 18 9.6 18H6.4C4.15979 18 3.03969 18 2.18404 17.564C1.43139 17.1805 0.819467 16.5686 0.435974 15.816C0 14.9603 0 13.8402 0 11.6V6.4Z" fill="#00C34E"/>
<path d="M8.55311 6.4C8.51578 6.4 8.49711 6.43733 8.49711 6.512V11.384C8.49711 11.4213 8.51578 11.4649 8.55311 11.5147C8.55311 11.5396 8.59666 11.552 8.68378 11.552L9.26244 11.608V12H6.81711V11.608L7.37711 11.552H7.47044C7.49533 11.552 7.50778 11.5396 7.50778 11.5147C7.53266 11.4898 7.54511 11.4462 7.54511 11.384V6.4C7.49533 6.35022 7.43933 6.32533 7.37711 6.32533L6.81711 6.26933V5.85867H9.26244V6.26933L8.68378 6.32533C8.59666 6.32533 8.55311 6.35022 8.55311 6.4Z" fill="white"/>
<path d="M8.55311 6.4V6.6H8.75311V6.4H8.55311ZM8.55311 11.5147H8.75311V11.448L8.71311 11.3947L8.55311 11.5147ZM8.68378 11.552L8.70304 11.3529L8.69343 11.352H8.68378V11.552ZM9.26244 11.608H9.46244V11.4264L9.28171 11.4089L9.26244 11.608ZM9.26244 12V12.2H9.46244V12H9.26244ZM6.81711 12H6.61711V12.2H6.81711V12ZM6.81711 11.608L6.79721 11.409L6.61711 11.427V11.608H6.81711ZM7.37711 11.552V11.352H7.36713L7.35721 11.353L7.37711 11.552ZM7.50778 11.5147L7.36635 11.3732L7.30778 11.4318V11.5147H7.50778ZM7.54511 6.4H7.74511V6.31716L7.68653 6.25858L7.54511 6.4ZM7.37711 6.32533L7.35721 6.52434L7.36713 6.52533H7.37711V6.32533ZM6.81711 6.26933H6.61711V6.45033L6.79721 6.46834L6.81711 6.26933ZM6.81711 5.85867V5.65867H6.61711V5.85867H6.81711ZM9.26244 5.85867H9.46244V5.65867H9.26244V5.85867ZM9.26244 6.26933L9.28171 6.4684L9.46244 6.45091V6.26933H9.26244ZM8.68378 6.32533V6.52533H8.69343L8.70304 6.5244L8.68378 6.32533ZM8.55311 6.2C8.50878 6.2 8.46107 6.21166 8.41767 6.24059C8.37552 6.26869 8.34875 6.3055 8.33222 6.33856C8.30199 6.39902 8.29711 6.46445 8.29711 6.512H8.69711C8.69711 6.50678 8.69727 6.50282 8.69748 6.5C8.69768 6.49715 8.69789 6.49586 8.69789 6.49588C8.69788 6.49592 8.6978 6.4964 8.69761 6.49726C8.69741 6.49812 8.69708 6.49946 8.69655 6.50122C8.69553 6.50461 8.69357 6.5103 8.68999 6.51744C8.6828 6.53184 8.6677 6.55465 8.63955 6.57341C8.61015 6.59301 8.57877 6.6 8.55311 6.6V6.2ZM8.29711 6.512V11.384H8.69711V6.512H8.29711ZM8.29711 11.384C8.29711 11.485 8.34556 11.5713 8.39311 11.6347L8.71311 11.3947C8.70121 11.3788 8.6964 11.3693 8.69494 11.3659C8.69351 11.3625 8.69711 11.3693 8.69711 11.384H8.29711ZM8.35311 11.5147C8.35311 11.5885 8.38886 11.6466 8.43112 11.6829C8.46745 11.714 8.50656 11.728 8.53083 11.735C8.58011 11.7491 8.63541 11.752 8.68378 11.752V11.352C8.64503 11.352 8.635 11.3487 8.64072 11.3504C8.64321 11.3511 8.66599 11.3573 8.69143 11.3791C8.7054 11.3911 8.72155 11.409 8.73404 11.434C8.74688 11.4597 8.75311 11.4874 8.75311 11.5147H8.35311ZM8.66451 11.7511L9.24318 11.8071L9.28171 11.4089L8.70304 11.3529L8.66451 11.7511ZM9.06244 11.608V12H9.46244V11.608H9.06244ZM9.26244 11.8H6.81711V12.2H9.26244V11.8ZM7.01711 12V11.608H6.61711V12H7.01711ZM6.83701 11.807L7.39701 11.751L7.35721 11.353L6.79721 11.409L6.83701 11.807ZM7.37711 11.752H7.47044V11.352H7.37711V11.752ZM7.47044 11.752C7.51372 11.752 7.58291 11.741 7.63986 11.6841C7.69682 11.6271 7.70778 11.5579 7.70778 11.5147H7.30778C7.30778 11.4963 7.31251 11.4458 7.35702 11.4012C7.40154 11.3567 7.45206 11.352 7.47044 11.352V11.752ZM7.6492 11.6561C7.73167 11.5736 7.74511 11.4618 7.74511 11.384H7.34511C7.34511 11.393 7.34465 11.3995 7.34415 11.4038C7.34363 11.4081 7.34317 11.4094 7.34347 11.4084C7.34397 11.4066 7.34883 11.3908 7.36635 11.3732L7.6492 11.6561ZM7.74511 11.384V6.4H7.34511V11.384H7.74511ZM7.68653 6.25858C7.60462 6.17666 7.49951 6.12533 7.37711 6.12533V6.52533C7.38068 6.52533 7.38252 6.52586 7.38455 6.52676C7.38704 6.52787 7.39361 6.53134 7.40369 6.54142L7.68653 6.25858ZM7.39701 6.12633L6.83701 6.07033L6.79721 6.46834L7.35721 6.52434L7.39701 6.12633ZM7.01711 6.26933V5.85867H6.61711V6.26933H7.01711ZM6.81711 6.05867H9.26244V5.65867H6.81711V6.05867ZM9.06244 5.85867V6.26933H9.46244V5.85867H9.06244ZM9.24318 6.07026L8.66451 6.12626L8.70304 6.5244L9.28171 6.4684L9.24318 6.07026ZM8.68378 6.12533C8.62773 6.12533 8.55333 6.13219 8.48655 6.17035C8.40306 6.21806 8.35311 6.30265 8.35311 6.4H8.75311C8.75311 6.41752 8.74899 6.44247 8.73403 6.46811C8.71912 6.49367 8.69964 6.50928 8.685 6.51765C8.67159 6.52531 8.66277 6.52671 8.66403 6.52647C8.66492 6.5263 8.67094 6.52533 8.68378 6.52533V6.12533Z" fill="white"/>
</svg>
