<svg width="16" height="18" viewBox="0 0 16 18" fill="none" xmlns="http://www.w3.org/2000/svg">
<path d="M0 6.4C0 4.15979 0 3.03969 0.435974 2.18404C0.819467 1.43139 1.43139 0.819467 2.18404 0.435974C3.03969 0 4.15979 0 6.4 0H9.6C11.8402 0 12.9603 0 13.816 0.435974C14.5686 0.819467 15.1805 1.43139 15.564 2.18404C16 3.03969 16 4.15979 16 6.4V11.6C16 13.8402 16 14.9603 15.564 15.816C15.1805 16.5686 14.5686 17.1805 13.816 17.564C12.9603 18 11.8402 18 9.6 18H6.4C4.15979 18 3.03969 18 2.18404 17.564C1.43139 17.1805 0.819467 16.5686 0.435974 15.816C0 14.9603 0 13.8402 0 11.6V6.4Z" fill="#1D6DE3"/>
<path d="M6.74022 6.4C6.70289 6.4 6.68422 6.43733 6.68422 6.512V11.384C6.68422 11.4213 6.70289 11.4649 6.74022 11.5147C6.74022 11.5396 6.78377 11.552 6.87089 11.552L7.44955 11.608V12H5.00422V11.608L5.56422 11.552H5.65755C5.68244 11.552 5.69489 11.5396 5.69489 11.5147C5.71977 11.4898 5.73222 11.4462 5.73222 11.384V6.4C5.68244 6.35022 5.62644 6.32533 5.56422 6.32533L5.00422 6.26933V5.85867H7.44955V6.26933L6.87089 6.32533C6.78377 6.32533 6.74022 6.35022 6.74022 6.4ZM10.366 6.4C10.3287 6.4 10.31 6.43733 10.31 6.512V11.384C10.31 11.4213 10.3287 11.4649 10.366 11.5147C10.366 11.5396 10.4096 11.552 10.4967 11.552L11.0753 11.608V12H8.63V11.608L9.19 11.552H9.28333C9.30822 11.552 9.32067 11.5396 9.32067 11.5147C9.34556 11.4898 9.358 11.4462 9.358 11.384V6.4C9.30822 6.35022 9.25222 6.32533 9.19 6.32533L8.63 6.26933V5.85867H11.0753V6.26933L10.4967 6.32533C10.4096 6.32533 10.366 6.35022 10.366 6.4Z" fill="white"/>
<path d="M6.74022 6.4V6.6H6.94022V6.4H6.74022ZM6.74022 11.5147H6.94022V11.448L6.90022 11.3947L6.74022 11.5147ZM6.87089 11.552L6.89015 11.3529L6.88054 11.352H6.87089V11.552ZM7.44955 11.608H7.64955V11.4264L7.46882 11.4089L7.44955 11.608ZM7.44955 12V12.2H7.64955V12H7.44955ZM5.00422 12H4.80422V12.2H5.00422V12ZM5.00422 11.608L4.98432 11.409L4.80422 11.427V11.608H5.00422ZM5.56422 11.552V11.352H5.55424L5.54432 11.353L5.56422 11.552ZM5.69489 11.5147L5.55346 11.3732L5.49489 11.4318V11.5147H5.69489ZM5.73222 6.4H5.93222V6.31716L5.87364 6.25858L5.73222 6.4ZM5.56422 6.32533L5.54432 6.52434L5.55424 6.52533H5.56422V6.32533ZM5.00422 6.26933H4.80422V6.45033L4.98432 6.46834L5.00422 6.26933ZM5.00422 5.85867V5.65867H4.80422V5.85867H5.00422ZM7.44955 5.85867H7.64955V5.65867H7.44955V5.85867ZM7.44955 6.26933L7.46882 6.4684L7.64955 6.45091V6.26933H7.44955ZM6.87089 6.32533V6.52533H6.88054L6.89015 6.5244L6.87089 6.32533ZM6.74022 6.2C6.69589 6.2 6.64818 6.21166 6.60478 6.24059C6.56263 6.26869 6.53586 6.3055 6.51933 6.33856C6.4891 6.39902 6.48422 6.46445 6.48422 6.512H6.88422C6.88422 6.50678 6.88438 6.50282 6.88459 6.5C6.88479 6.49715 6.885 6.49586 6.885 6.49588C6.88499 6.49592 6.88491 6.4964 6.88471 6.49726C6.88452 6.49812 6.88419 6.49946 6.88366 6.50122C6.88264 6.50461 6.88067 6.5103 6.8771 6.51744C6.86991 6.53184 6.85481 6.55465 6.82666 6.57341C6.79726 6.59301 6.76588 6.6 6.74022 6.6V6.2ZM6.48422 6.512V11.384H6.88422V6.512H6.48422ZM6.48422 11.384C6.48422 11.485 6.53267 11.5713 6.58022 11.6347L6.90022 11.3947C6.88832 11.3788 6.88351 11.3693 6.88205 11.3659C6.88062 11.3625 6.88422 11.3693 6.88422 11.384H6.48422ZM6.54022 11.5147C6.54022 11.5885 6.57597 11.6466 6.61823 11.6829C6.65456 11.714 6.69367 11.728 6.71794 11.735C6.76722 11.7491 6.82252 11.752 6.87089 11.752V11.352C6.83214 11.352 6.8221 11.3487 6.82783 11.3504C6.83032 11.3511 6.8531 11.3573 6.87854 11.3791C6.89251 11.3911 6.90866 11.409 6.92115 11.434C6.93399 11.4597 6.94022 11.4874 6.94022 11.5147H6.54022ZM6.85162 11.7511L7.43029 11.8071L7.46882 11.4089L6.89015 11.3529L6.85162 11.7511ZM7.24955 11.608V12H7.64955V11.608H7.24955ZM7.44955 11.8H5.00422V12.2H7.44955V11.8ZM5.20422 12V11.608H4.80422V12H5.20422ZM5.02412 11.807L5.58412 11.751L5.54432 11.353L4.98432 11.409L5.02412 11.807ZM5.56422 11.752H5.65755V11.352H5.56422V11.752ZM5.65755 11.752C5.70083 11.752 5.77002 11.741 5.82697 11.6841C5.88393 11.6271 5.89489 11.5579 5.89489 11.5147H5.49489C5.49489 11.4963 5.49962 11.4458 5.54413 11.4012C5.58864 11.3567 5.63917 11.352 5.65755 11.352V11.752ZM5.83631 11.6561C5.91878 11.5736 5.93222 11.4618 5.93222 11.384H5.53222C5.53222 11.393 5.53176 11.3995 5.53126 11.4038C5.53074 11.4081 5.53028 11.4094 5.53058 11.4084C5.53108 11.4066 5.53594 11.3908 5.55346 11.3732L5.83631 11.6561ZM5.93222 11.384V6.4H5.53222V11.384H5.93222ZM5.87364 6.25858C5.79172 6.17666 5.68662 6.12533 5.56422 6.12533V6.52533C5.56779 6.52533 5.56963 6.52586 5.57166 6.52676C5.57415 6.52787 5.58072 6.53134 5.5908 6.54142L5.87364 6.25858ZM5.58412 6.12633L5.02412 6.07033L4.98432 6.46834L5.54432 6.52434L5.58412 6.12633ZM5.20422 6.26933V5.85867H4.80422V6.26933H5.20422ZM5.00422 6.05867H7.44955V5.65867H5.00422V6.05867ZM7.24955 5.85867V6.26933H7.64955V5.85867H7.24955ZM7.43029 6.07026L6.85162 6.12626L6.89015 6.5244L7.46882 6.4684L7.43029 6.07026ZM6.87089 6.12533C6.81484 6.12533 6.74044 6.13219 6.67366 6.17035C6.59017 6.21806 6.54022 6.30265 6.54022 6.4H6.94022C6.94022 6.41752 6.9361 6.44247 6.92114 6.46811C6.90623 6.49367 6.88675 6.50928 6.87211 6.51765C6.8587 6.52531 6.84988 6.52671 6.85114 6.52647C6.85203 6.5263 6.85805 6.52533 6.87089 6.52533V6.12533ZM10.366 6.4V6.6H10.566V6.4H10.366ZM10.366 11.5147H10.566V11.448L10.526 11.3947L10.366 11.5147ZM10.4967 11.552L10.5159 11.3529L10.5063 11.352H10.4967V11.552ZM11.0753 11.608H11.2753V11.4264L11.0946 11.4089L11.0753 11.608ZM11.0753 12V12.2H11.2753V12H11.0753ZM8.63 12H8.43V12.2H8.63V12ZM8.63 11.608L8.6101 11.409L8.43 11.427V11.608H8.63ZM9.19 11.552V11.352H9.18003L9.1701 11.353L9.19 11.552ZM9.32067 11.5147L9.17925 11.3732L9.12067 11.4318V11.5147H9.32067ZM9.358 6.4H9.558V6.31716L9.49942 6.25858L9.358 6.4ZM9.19 6.32533L9.1701 6.52434L9.18003 6.52533H9.19V6.32533ZM8.63 6.26933H8.43V6.45033L8.6101 6.46834L8.63 6.26933ZM8.63 5.85867V5.65867H8.43V5.85867H8.63ZM11.0753 5.85867H11.2753V5.65867H11.0753V5.85867ZM11.0753 6.26933L11.0946 6.4684L11.2753 6.45091V6.26933H11.0753ZM10.4967 6.32533V6.52533H10.5063L10.5159 6.5244L10.4967 6.32533ZM10.366 6.2C10.3217 6.2 10.274 6.21166 10.2306 6.24059C10.1884 6.26869 10.1616 6.3055 10.1451 6.33856C10.1149 6.39902 10.11 6.46445 10.11 6.512H10.51C10.51 6.50678 10.5102 6.50282 10.5104 6.5C10.5106 6.49715 10.5108 6.49586 10.5108 6.49588C10.5108 6.49592 10.5107 6.4964 10.5105 6.49726C10.5103 6.49812 10.51 6.49946 10.5094 6.50122C10.5084 6.50461 10.5065 6.5103 10.5029 6.51744C10.4957 6.53184 10.4806 6.55465 10.4524 6.57341C10.423 6.59301 10.3917 6.6 10.366 6.6V6.2ZM10.11 6.512V11.384H10.51V6.512H10.11ZM10.11 11.384C10.11 11.485 10.1585 11.5713 10.206 11.6347L10.526 11.3947C10.5141 11.3788 10.5093 11.3693 10.5078 11.3659C10.5064 11.3625 10.51 11.3693 10.51 11.384H10.11ZM10.166 11.5147C10.166 11.5885 10.2017 11.6466 10.244 11.6829C10.2803 11.714 10.3195 11.728 10.3437 11.735C10.393 11.7491 10.4483 11.752 10.4967 11.752V11.352C10.4579 11.352 10.4479 11.3487 10.4536 11.3504C10.4561 11.3511 10.4789 11.3573 10.5043 11.3791C10.5183 11.3911 10.5344 11.409 10.5469 11.434C10.5598 11.4597 10.566 11.4874 10.566 11.5147H10.166ZM10.4774 11.7511L11.0561 11.8071L11.0946 11.4089L10.5159 11.3529L10.4774 11.7511ZM10.8753 11.608V12H11.2753V11.608H10.8753ZM11.0753 11.8H8.63V12.2H11.0753V11.8ZM8.83 12V11.608H8.43V12H8.83ZM8.6499 11.807L9.2099 11.751L9.1701 11.353L8.6101 11.409L8.6499 11.807ZM9.19 11.752H9.28333V11.352H9.19V11.752ZM9.28333 11.752C9.32661 11.752 9.3958 11.741 9.45275 11.6841C9.50971 11.6271 9.52067 11.5579 9.52067 11.5147H9.12067C9.12067 11.4963 9.1254 11.4458 9.16991 11.4012C9.21443 11.3567 9.26495 11.352 9.28333 11.352V11.752ZM9.46209 11.6561C9.54456 11.5736 9.558 11.4618 9.558 11.384H9.158C9.158 11.393 9.15754 11.3995 9.15704 11.4038C9.15653 11.4081 9.15606 11.4094 9.15636 11.4084C9.15686 11.4066 9.16172 11.3908 9.17925 11.3732L9.46209 11.6561ZM9.558 11.384V6.4H9.158V11.384H9.558ZM9.49942 6.25858C9.41751 6.17666 9.31241 6.12533 9.19 6.12533V6.52533C9.19357 6.52533 9.19541 6.52586 9.19744 6.52676C9.19993 6.52787 9.2065 6.53134 9.21658 6.54142L9.49942 6.25858ZM9.2099 6.12633L8.6499 6.07033L8.6101 6.46834L9.1701 6.52434L9.2099 6.12633ZM8.83 6.26933V5.85867H8.43V6.26933H8.83ZM8.63 6.05867H11.0753V5.65867H8.63V6.05867ZM10.8753 5.85867V6.26933H11.2753V5.85867H10.8753ZM11.0561 6.07026L10.4774 6.12626L10.5159 6.5244L11.0946 6.4684L11.0561 6.07026ZM10.4967 6.12533C10.4406 6.12533 10.3662 6.13219 10.2994 6.17035C10.216 6.21806 10.166 6.30265 10.166 6.4H10.566C10.566 6.41752 10.5619 6.44247 10.5469 6.46811C10.532 6.49367 10.5125 6.50928 10.4979 6.51765C10.4845 6.52531 10.4757 6.52671 10.4769 6.52647C10.4778 6.5263 10.4838 6.52533 10.4967 6.52533V6.12533Z" fill="white"/>
<path d="M0 6.4C0 4.15979 0 3.03969 0.435974 2.18404C0.819467 1.43139 1.43139 0.819467 2.18404 0.435974C3.03969 0 4.15979 0 6.4 0H9.6C11.8402 0 12.9603 0 13.816 0.435974C14.5686 0.819467 15.1805 1.43139 15.564 2.18404C16 3.03969 16 4.15979 16 6.4V11.6C16 13.8402 16 14.9603 15.564 15.816C15.1805 16.5686 14.5686 17.1805 13.816 17.564C12.9603 18 11.8402 18 9.6 18H6.4C4.15979 18 3.03969 18 2.18404 17.564C1.43139 17.1805 0.819467 16.5686 0.435974 15.816C0 14.9603 0 13.8402 0 11.6V6.4Z" fill="#FF891C"/>
<path d="M4.92733 6.4C4.88999 6.4 4.87133 6.43733 4.87133 6.512V11.384C4.87133 11.4213 4.88999 11.4649 4.92733 11.5147C4.92733 11.5396 4.97088 11.552 5.058 11.552L5.63666 11.608V12H3.19133V11.608L3.75133 11.552H3.84466C3.86955 11.552 3.88199 11.5396 3.88199 11.5147C3.90688 11.4898 3.91933 11.4462 3.91933 11.384V6.4C3.86955 6.35022 3.81355 6.32533 3.75133 6.32533L3.19133 6.26933V5.85867H5.63666V6.26933L5.058 6.32533C4.97088 6.32533 4.92733 6.35022 4.92733 6.4ZM8.55311 6.4C8.51578 6.4 8.49711 6.43733 8.49711 6.512V11.384C8.49711 11.4213 8.51578 11.4649 8.55311 11.5147C8.55311 11.5396 8.59666 11.552 8.68378 11.552L9.26244 11.608V12H6.81711V11.608L7.37711 11.552H7.47044C7.49533 11.552 7.50778 11.5396 7.50778 11.5147C7.53266 11.4898 7.54511 11.4462 7.54511 11.384V6.4C7.49533 6.35022 7.43933 6.32533 7.37711 6.32533L6.81711 6.26933V5.85867H9.26244V6.26933L8.68378 6.32533C8.59666 6.32533 8.55311 6.35022 8.55311 6.4ZM12.1789 6.4C12.1416 6.4 12.1229 6.43733 12.1229 6.512V11.384C12.1229 11.4213 12.1416 11.4649 12.1789 11.5147C12.1789 11.5396 12.2224 11.552 12.3096 11.552L12.8882 11.608V12H10.4429V11.608L11.0029 11.552H11.0962C11.1211 11.552 11.1336 11.5396 11.1336 11.5147C11.1584 11.4898 11.1709 11.4462 11.1709 11.384V6.4C11.1211 6.35022 11.0651 6.32533 11.0029 6.32533L10.4429 6.26933V5.85867H12.8882V6.26933L12.3096 6.32533C12.2224 6.32533 12.1789 6.35022 12.1789 6.4Z" fill="white"/>
<path d="M4.92733 6.4V6.6H5.12733V6.4H4.92733ZM4.92733 11.5147H5.12733V11.448L5.08733 11.3947L4.92733 11.5147ZM5.05799 11.552L5.07726 11.3529L5.06765 11.352H5.05799V11.552ZM5.63666 11.608H5.83666V11.4264L5.65593 11.4089L5.63666 11.608ZM5.63666 12V12.2H5.83666V12H5.63666ZM3.19133 12H2.99133V12.2H3.19133V12ZM3.19133 11.608L3.17143 11.409L2.99133 11.427V11.608H3.19133ZM3.75133 11.552V11.352H3.74135L3.73143 11.353L3.75133 11.552ZM3.88199 11.5147L3.74057 11.3732L3.68199 11.4318V11.5147H3.88199ZM3.91933 6.4H4.11933V6.31716L4.06075 6.25858L3.91933 6.4ZM3.75133 6.32533L3.73143 6.52434L3.74135 6.52533H3.75133V6.32533ZM3.19133 6.26933H2.99133V6.45033L3.17143 6.46834L3.19133 6.26933ZM3.19133 5.85867V5.65867H2.99133V5.85867H3.19133ZM5.63666 5.85867H5.83666V5.65867H5.63666V5.85867ZM5.63666 6.26933L5.65593 6.4684L5.83666 6.45091V6.26933H5.63666ZM5.05799 6.32533V6.52533H5.06765L5.07726 6.5244L5.05799 6.32533ZM4.92733 6.2C4.883 6.2 4.83529 6.21166 4.79189 6.24059C4.74974 6.26869 4.72297 6.3055 4.70644 6.33856C4.67621 6.39902 4.67133 6.46445 4.67133 6.512H5.07133C5.07133 6.50678 5.07149 6.50282 5.07169 6.5C5.0719 6.49715 5.07211 6.49586 5.07211 6.49588C5.0721 6.49592 5.07202 6.4964 5.07182 6.49726C5.07163 6.49812 5.07129 6.49946 5.07077 6.50122C5.06975 6.50461 5.06778 6.5103 5.06421 6.51744C5.05702 6.53184 5.04192 6.55465 5.01377 6.57341C4.98437 6.59301 4.95299 6.6 4.92733 6.6V6.2ZM4.67133 6.512V11.384H5.07133V6.512H4.67133ZM4.67133 11.384C4.67133 11.485 4.71978 11.5713 4.76733 11.6347L5.08733 11.3947C5.07543 11.3788 5.07062 11.3693 5.06916 11.3659C5.06773 11.3625 5.07133 11.3693 5.07133 11.384H4.67133ZM4.72733 11.5147C4.72733 11.5885 4.76308 11.6466 4.80534 11.6829C4.84167 11.714 4.88078 11.728 4.90505 11.735C4.95433 11.7491 5.00963 11.752 5.05799 11.752V11.352C5.01925 11.352 5.00921 11.3487 5.01494 11.3504C5.01743 11.3511 5.04021 11.3573 5.06565 11.3791C5.07962 11.3911 5.09577 11.409 5.10826 11.434C5.1211 11.4597 5.12733 11.4874 5.12733 11.5147H4.72733ZM5.03873 11.7511L5.6174 11.8071L5.65593 11.4089L5.07726 11.3529L5.03873 11.7511ZM5.43666 11.608V12H5.83666V11.608H5.43666ZM5.63666 11.8H3.19133V12.2H5.63666V11.8ZM3.39133 12V11.608H2.99133V12H3.39133ZM3.21123 11.807L3.77123 11.751L3.73143 11.353L3.17143 11.409L3.21123 11.807ZM3.75133 11.752H3.84466V11.352H3.75133V11.752ZM3.84466 11.752C3.88793 11.752 3.95712 11.741 4.01408 11.6841C4.07104 11.6271 4.082 11.5579 4.082 11.5147H3.68199C3.68199 11.4963 3.68673 11.4458 3.73124 11.4012C3.77575 11.3567 3.82628 11.352 3.84466 11.352V11.752ZM4.02342 11.6561C4.10589 11.5736 4.11933 11.4618 4.11933 11.384H3.71933C3.71933 11.393 3.71887 11.3995 3.71836 11.4038C3.71785 11.4081 3.71739 11.4094 3.71769 11.4084C3.71819 11.4066 3.72305 11.3908 3.74057 11.3732L4.02342 11.6561ZM4.11933 11.384V6.4H3.71933V11.384H4.11933ZM4.06075 6.25858C3.97883 6.17666 3.87373 6.12533 3.75133 6.12533V6.52533C3.7549 6.52533 3.75674 6.52586 3.75877 6.52676C3.76126 6.52787 3.76783 6.53134 3.77791 6.54142L4.06075 6.25858ZM3.77123 6.12633L3.21123 6.07033L3.17143 6.46834L3.73143 6.52434L3.77123 6.12633ZM3.39133 6.26933V5.85867H2.99133V6.26933H3.39133ZM3.19133 6.05867H5.63666V5.65867H3.19133V6.05867ZM5.43666 5.85867V6.26933H5.83666V5.85867H5.43666ZM5.6174 6.07026L5.03873 6.12626L5.07726 6.5244L5.65593 6.4684L5.6174 6.07026ZM5.05799 6.12533C5.00195 6.12533 4.92755 6.13219 4.86077 6.17035C4.77728 6.21806 4.72733 6.30265 4.72733 6.4H5.12733C5.12733 6.41752 5.12321 6.44247 5.10825 6.46811C5.09334 6.49367 5.07386 6.50928 5.05922 6.51765C5.04581 6.52531 5.03699 6.52671 5.03825 6.52647C5.03914 6.5263 5.04516 6.52533 5.05799 6.52533V6.12533ZM8.55311 6.4V6.6H8.75311V6.4H8.55311ZM8.55311 11.5147H8.75311V11.448L8.71311 11.3947L8.55311 11.5147ZM8.68378 11.552L8.70304 11.3529L8.69343 11.352H8.68378V11.552ZM9.26244 11.608H9.46244V11.4264L9.28171 11.4089L9.26244 11.608ZM9.26244 12V12.2H9.46244V12H9.26244ZM6.81711 12H6.61711V12.2H6.81711V12ZM6.81711 11.608L6.79721 11.409L6.61711 11.427V11.608H6.81711ZM7.37711 11.552V11.352H7.36713L7.35721 11.353L7.37711 11.552ZM7.50778 11.5147L7.36635 11.3732L7.30778 11.4318V11.5147H7.50778ZM7.54511 6.4H7.74511V6.31716L7.68653 6.25858L7.54511 6.4ZM7.37711 6.32533L7.35721 6.52434L7.36713 6.52533H7.37711V6.32533ZM6.81711 6.26933H6.61711V6.45033L6.79721 6.46834L6.81711 6.26933ZM6.81711 5.85867V5.65867H6.61711V5.85867H6.81711ZM9.26244 5.85867H9.46244V5.65867H9.26244V5.85867ZM9.26244 6.26933L9.28171 6.4684L9.46244 6.45091V6.26933H9.26244ZM8.68378 6.32533V6.52533H8.69343L8.70304 6.5244L8.68378 6.32533ZM8.55311 6.2C8.50878 6.2 8.46107 6.21166 8.41767 6.24059C8.37552 6.26869 8.34875 6.3055 8.33222 6.33856C8.30199 6.39902 8.29711 6.46445 8.29711 6.512H8.69711C8.69711 6.50678 8.69727 6.50282 8.69748 6.5C8.69768 6.49715 8.69789 6.49586 8.69789 6.49588C8.69788 6.49592 8.6978 6.4964 8.69761 6.49726C8.69741 6.49812 8.69708 6.49946 8.69655 6.50122C8.69553 6.50461 8.69357 6.5103 8.68999 6.51744C8.6828 6.53184 8.6677 6.55465 8.63955 6.57341C8.61015 6.59301 8.57877 6.6 8.55311 6.6V6.2ZM8.29711 6.512V11.384H8.69711V6.512H8.29711ZM8.29711 11.384C8.29711 11.485 8.34556 11.5713 8.39311 11.6347L8.71311 11.3947C8.70121 11.3788 8.6964 11.3693 8.69494 11.3659C8.69351 11.3625 8.69711 11.3693 8.69711 11.384H8.29711ZM8.35311 11.5147C8.35311 11.5885 8.38886 11.6466 8.43112 11.6829C8.46745 11.714 8.50656 11.728 8.53083 11.735C8.58011 11.7491 8.63541 11.752 8.68378 11.752V11.352C8.64503 11.352 8.635 11.3487 8.64072 11.3504C8.64321 11.3511 8.66599 11.3573 8.69143 11.3791C8.7054 11.3911 8.72155 11.409 8.73404 11.434C8.74688 11.4597 8.75311 11.4874 8.75311 11.5147H8.35311ZM8.66451 11.7511L9.24318 11.8071L9.28171 11.4089L8.70304 11.3529L8.66451 11.7511ZM9.06244 11.608V12H9.46244V11.608H9.06244ZM9.26244 11.8H6.81711V12.2H9.26244V11.8ZM7.01711 12V11.608H6.61711V12H7.01711ZM6.83701 11.807L7.39701 11.751L7.35721 11.353L6.79721 11.409L6.83701 11.807ZM7.37711 11.752H7.47044V11.352H7.37711V11.752ZM7.47044 11.752C7.51372 11.752 7.58291 11.741 7.63986 11.6841C7.69682 11.6271 7.70778 11.5579 7.70778 11.5147H7.30778C7.30778 11.4963 7.31251 11.4458 7.35702 11.4012C7.40154 11.3567 7.45206 11.352 7.47044 11.352V11.752ZM7.6492 11.6561C7.73167 11.5736 7.74511 11.4618 7.74511 11.384H7.34511C7.34511 11.393 7.34465 11.3995 7.34415 11.4038C7.34363 11.4081 7.34317 11.4094 7.34347 11.4084C7.34397 11.4066 7.34883 11.3908 7.36635 11.3732L7.6492 11.6561ZM7.74511 11.384V6.4H7.34511V11.384H7.74511ZM7.68653 6.25858C7.60462 6.17666 7.49951 6.12533 7.37711 6.12533V6.52533C7.38068 6.52533 7.38252 6.52586 7.38455 6.52676C7.38704 6.52787 7.39361 6.53134 7.40369 6.54142L7.68653 6.25858ZM7.39701 6.12633L6.83701 6.07033L6.79721 6.46834L7.35721 6.52434L7.39701 6.12633ZM7.01711 6.26933V5.85867H6.61711V6.26933H7.01711ZM6.81711 6.05867H9.26244V5.65867H6.81711V6.05867ZM9.06244 5.85867V6.26933H9.46244V5.85867H9.06244ZM9.24318 6.07026L8.66451 6.12626L8.70304 6.5244L9.28171 6.4684L9.24318 6.07026ZM8.68378 6.12533C8.62773 6.12533 8.55333 6.13219 8.48655 6.17035C8.40306 6.21806 8.35311 6.30265 8.35311 6.4H8.75311C8.75311 6.41752 8.74899 6.44247 8.73403 6.46811C8.71912 6.49367 8.69964 6.50928 8.685 6.51765C8.67159 6.52531 8.66277 6.52671 8.66403 6.52647C8.66492 6.5263 8.67094 6.52533 8.68378 6.52533V6.12533ZM12.1789 6.4V6.6H12.3789V6.4H12.1789ZM12.1789 11.5147H12.3789V11.448L12.3389 11.3947L12.1789 11.5147ZM12.3096 11.552L12.3288 11.3529L12.3192 11.352H12.3096V11.552ZM12.8882 11.608H13.0882V11.4264L12.9075 11.4089L12.8882 11.608ZM12.8882 12V12.2H13.0882V12H12.8882ZM10.4429 12H10.2429V12.2H10.4429V12ZM10.4429 11.608L10.423 11.409L10.2429 11.427V11.608H10.4429ZM11.0029 11.552V11.352H10.9929L10.983 11.353L11.0029 11.552ZM11.1336 11.5147L10.9921 11.3732L10.9336 11.4318V11.5147H11.1336ZM11.1709 6.4H11.3709V6.31716L11.3123 6.25858L11.1709 6.4ZM11.0029 6.32533L10.983 6.52434L10.9929 6.52533H11.0029V6.32533ZM10.4429 6.26933H10.2429V6.45033L10.423 6.46834L10.4429 6.26933ZM10.4429 5.85867V5.65867H10.2429V5.85867H10.4429ZM12.8882 5.85867H13.0882V5.65867H12.8882V5.85867ZM12.8882 6.26933L12.9075 6.4684L13.0882 6.45091V6.26933H12.8882ZM12.3096 6.32533V6.52533H12.3192L12.3288 6.5244L12.3096 6.32533ZM12.1789 6.2C12.1346 6.2 12.0869 6.21166 12.0435 6.24059C12.0013 6.26869 11.9745 6.3055 11.958 6.33856C11.9278 6.39902 11.9229 6.46445 11.9229 6.512H12.3229C12.3229 6.50678 12.3231 6.50282 12.3233 6.5C12.3235 6.49715 12.3237 6.49586 12.3237 6.49588C12.3237 6.49592 12.3236 6.4964 12.3234 6.49726C12.3232 6.49812 12.3229 6.49946 12.3223 6.50122C12.3213 6.50461 12.3193 6.5103 12.3158 6.51744C12.3086 6.53184 12.2935 6.55465 12.2653 6.57341C12.2359 6.59301 12.2046 6.6 12.1789 6.6V6.2ZM11.9229 6.512V11.384H12.3229V6.512H11.9229ZM11.9229 11.384C11.9229 11.485 11.9713 11.5713 12.0189 11.6347L12.3389 11.3947C12.327 11.3788 12.3222 11.3693 12.3207 11.3659C12.3193 11.3625 12.3229 11.3693 12.3229 11.384H11.9229ZM11.9789 11.5147C11.9789 11.5885 12.0146 11.6466 12.0569 11.6829C12.0932 11.714 12.1323 11.728 12.1566 11.735C12.2059 11.7491 12.2612 11.752 12.3096 11.752V11.352C12.2708 11.352 12.2608 11.3487 12.2665 11.3504C12.269 11.3511 12.2918 11.3573 12.3172 11.3791C12.3312 11.3911 12.3473 11.409 12.3598 11.434C12.3727 11.4597 12.3789 11.4874 12.3789 11.5147H11.9789ZM12.2903 11.7511L12.869 11.8071L12.9075 11.4089L12.3288 11.3529L12.2903 11.7511ZM12.6882 11.608V12H13.0882V11.608H12.6882ZM12.8882 11.8H10.4429V12.2H12.8882V11.8ZM10.6429 12V11.608H10.2429V12H10.6429ZM10.4628 11.807L11.0228 11.751L10.983 11.353L10.423 11.409L10.4628 11.807ZM11.0029 11.752H11.0962V11.352H11.0029V11.752ZM11.0962 11.752C11.1395 11.752 11.2087 11.741 11.2656 11.6841C11.3226 11.6271 11.3336 11.5579 11.3336 11.5147H10.9336C10.9336 11.4963 10.9383 11.4458 10.9828 11.4012C11.0273 11.3567 11.0778 11.352 11.0962 11.352V11.752ZM11.275 11.6561C11.3575 11.5736 11.3709 11.4618 11.3709 11.384H10.9709C10.9709 11.393 10.9704 11.3995 10.9699 11.4038C10.9694 11.4081 10.969 11.4094 10.9693 11.4084C10.9698 11.4066 10.9746 11.3908 10.9921 11.3732L11.275 11.6561ZM11.3709 11.384V6.4H10.9709V11.384H11.3709ZM11.3123 6.25858C11.2304 6.17666 11.1253 6.12533 11.0029 6.12533V6.52533C11.0065 6.52533 11.0083 6.52586 11.0103 6.52676C11.0128 6.52787 11.0194 6.53134 11.0295 6.54142L11.3123 6.25858ZM11.0228 6.12633L10.4628 6.07033L10.423 6.46834L10.983 6.52434L11.0228 6.12633ZM10.6429 6.26933V5.85867H10.2429V6.26933H10.6429ZM10.4429 6.05867H12.8882V5.65867H10.4429V6.05867ZM12.6882 5.85867V6.26933H13.0882V5.85867H12.6882ZM12.869 6.07026L12.2903 6.12626L12.3288 6.5244L12.9075 6.4684L12.869 6.07026ZM12.3096 6.12533C12.2535 6.12533 12.1791 6.13219 12.1123 6.17035C12.0288 6.21806 11.9789 6.30265 11.9789 6.4H12.3789C12.3789 6.41752 12.3748 6.44247 12.3598 6.46811C12.3449 6.49367 12.3254 6.50928 12.3108 6.51765C12.2974 6.52531 12.2886 6.52671 12.2898 6.52647C12.2907 6.5263 12.2967 6.52533 12.3096 6.52533V6.12533Z" fill="white"/>
</svg>
