<svg width="17" height="23" viewBox="0 0 17 23" fill="none" xmlns="http://www.w3.org/2000/svg">
<path fill-rule="evenodd" clip-rule="evenodd" d="M0 21.9545C0 21.3772 0.468066 20.9091 1.04545 20.9091H15.6818C16.2592 20.9091 16.7273 21.3772 16.7273 21.9545C16.7273 22.5319 16.2592 23 15.6818 23H1.04545C0.468066 23 0 22.5319 0 21.9545Z" fill="#99A2AD"/>
<path d="M9.40814 1.01173C9.40814 0.452966 8.94049 0 8.36362 0C7.78675 0 7.3191 0.452966 7.3191 1.01173L7.31909 14.5636L1.7847 9.02925C1.37643 8.62098 0.714482 8.62098 0.306207 9.02925C-0.102069 9.43753 -0.102069 10.0995 0.306207 10.5078L7.61787 17.8194C8.02615 18.2277 8.68809 18.2277 9.09637 17.8194L16.4227 10.4931C16.831 10.0848 16.831 9.42286 16.4227 9.01458C16.0144 8.60631 15.3525 8.60631 14.9442 9.01458L9.40813 14.5507L9.40814 1.01173Z" fill="#99A2AD"/>
</svg>
