<svg width="20" height="20" viewBox="0 0 20 20" fill="none" xmlns="http://www.w3.org/2000/svg">
<path fill-rule="evenodd" clip-rule="evenodd" d="M2.79042 0.728544C3.78615 0.19602 4.76716 0 6.99241 0H9.09091C9.59299 0 10 0.407014 10 0.909091C10 1.41117 9.59299 1.81818 9.09091 1.81818H6.99241C4.86974 1.81818 4.24853 2.0106 3.64787 2.33184C3.07818 2.63652 2.63652 3.07818 2.33184 3.64787C2.0106 4.24853 1.81818 4.86974 1.81818 6.99241V13.0076C1.81818 15.1303 2.0106 15.7515 2.33184 16.3521C2.63652 16.9218 3.07818 17.3635 3.64787 17.6682C4.24853 17.9894 4.86974 18.1818 6.99241 18.1818H13.0076C15.1303 18.1818 15.7515 17.9894 16.3521 17.6682C16.9218 17.3635 17.3635 16.9218 17.6682 16.3521C17.9894 15.7515 18.1818 15.1303 18.1818 13.0076V10.9091C18.1818 10.407 18.5888 10 19.0909 10C19.593 10 20 10.407 20 10.9091V13.0076C20 15.2328 19.804 16.2138 19.2715 17.2096C18.7973 18.0961 18.0961 18.7973 17.2096 19.2715C16.2138 19.804 15.2328 20 13.0076 20H6.99241C4.76717 20 3.78615 19.804 2.79042 19.2715C1.90388 18.7973 1.20267 18.0961 0.728544 17.2096C0.19602 16.2138 0 15.2328 0 13.0076V6.99241C0 4.76716 0.19602 3.78615 0.728544 2.79042C1.20267 1.90388 1.90388 1.20267 2.79042 0.728544Z" fill="#C1D9E2"/>
<path fill-rule="evenodd" clip-rule="evenodd" d="M16.3635 10.0011C16.3635 10.5031 15.9564 10.9102 15.4544 10.9102H9.99982C9.49775 10.9102 9.09073 10.5031 9.09073 10.0011V4.54652C9.09073 4.04444 9.49775 3.63743 9.99982 3.63743C10.5019 3.63743 10.9089 4.04444 10.9089 4.54652V7.80633L16.6297 2.08551C16.9847 1.73049 17.5604 1.73049 17.9154 2.08551C18.2704 2.44054 18.2704 3.01614 17.9154 3.37116L12.1946 9.09197H15.4544C15.9564 9.09197 16.3635 9.49899 16.3635 10.0011Z" fill="#C1D9E2"/>
</svg>
