<svg width="20" height="20" viewBox="0 0 20 20" fill="none" xmlns="http://www.w3.org/2000/svg">
<path fill-rule="evenodd" clip-rule="evenodd" d="M2.79042 0.728544C3.78615 0.19602 4.76716 0 6.99241 0H9.09091C9.59299 0 10 0.407014 10 0.909091C10 1.41117 9.59299 1.81818 9.09091 1.81818H6.99241C4.86974 1.81818 4.24853 2.0106 3.64787 2.33184C3.07818 2.63652 2.63652 3.07818 2.33184 3.64787C2.0106 4.24853 1.81818 4.86974 1.81818 6.99241V13.0076C1.81818 15.1303 2.0106 15.7515 2.33184 16.3521C2.63652 16.9218 3.07818 17.3635 3.64787 17.6682C4.24853 17.9894 4.86974 18.1818 6.99241 18.1818H13.0076C15.1303 18.1818 15.7515 17.9894 16.3521 17.6682C16.9218 17.3635 17.3635 16.9218 17.6682 16.3521C17.9894 15.7515 18.1818 15.1303 18.1818 13.0076V10.9091C18.1818 10.407 18.5888 10 19.0909 10C19.593 10 20 10.407 20 10.9091V13.0076C20 15.2328 19.804 16.2138 19.2715 17.2096C18.7973 18.0961 18.0961 18.7973 17.2096 19.2715C16.2138 19.804 15.2328 20 13.0076 20H6.99241C4.76717 20 3.78615 19.804 2.79042 19.2715C1.90388 18.7973 1.20267 18.0961 0.728544 17.2096C0.19602 16.2138 0 15.2328 0 13.0076V6.99241C0 4.76716 0.19602 3.78615 0.728544 2.79042C1.20267 1.90388 1.90388 1.20267 2.79042 0.728544Z" fill="#C1D9E2"/>
<path fill-rule="evenodd" clip-rule="evenodd" d="M12.7321 0.909091C12.7321 0.407014 13.1391 0 13.6412 0H19.0957C19.5978 0 20.0048 0.407014 20.0048 0.909091V6.36363C20.0048 6.86571 19.5978 7.27272 19.0957 7.27272C18.5936 7.27272 18.1866 6.86571 18.1866 6.36363V3.10383L10.6476 10.6428C10.2926 10.9978 9.71699 10.9978 9.36197 10.6428C9.00695 10.2878 9.00695 9.71219 9.36197 9.35717L16.901 1.81818H13.6412C13.1391 1.81818 12.7321 1.41117 12.7321 0.909091Z" fill="#C1D9E2"/>
</svg>
