<svg width="28" height="28" viewBox="0 0 28 28" fill="none" xmlns="http://www.w3.org/2000/svg">
<path fill-rule="evenodd" clip-rule="evenodd" d="M13.9482 7.69932C13.3683 7.70177 12.8962 7.23366 12.8937 6.65377C12.8913 6.07387 13.3594 5.60179 13.9393 5.59934C16.804 5.59329 19.7452 6.37084 22.2249 7.80794C24.5916 9.17953 26.5984 11.2941 26.5984 13.9992C26.5984 15.4035 26.0481 16.6608 25.2003 17.7213C24.8382 18.1742 24.1775 18.2478 23.7245 17.8857C23.2716 17.5236 23.198 16.8628 23.5601 16.4099C24.1794 15.6353 24.4984 14.8268 24.4984 13.9992C24.4984 12.4169 23.297 10.8564 21.1719 9.62487C19.0139 8.37416 16.4413 7.69406 13.9482 7.69932Z" fill="#828282"/>
<path fill-rule="evenodd" clip-rule="evenodd" d="M5.77194 20.1905C8.17923 21.5856 11.2486 22.3992 13.9984 22.3992C16.2455 22.3992 18.6959 21.8564 20.8208 20.9065L22.006 22.0917C22.416 22.5017 23.0808 22.5017 23.4909 22.0917C23.901 21.6816 23.901 21.0168 23.4909 20.6068L7.3909 4.50676C6.98085 4.09671 6.31603 4.09671 5.90598 4.50676C5.49592 4.91681 5.49592 5.58163 5.90598 5.99168L7.05913 7.14483C5.69507 7.76779 4.44123 8.57268 3.46091 9.54146C2.24744 10.7407 1.39844 12.2516 1.39844 13.9992C1.39844 16.7044 3.40529 18.8189 5.77194 20.1905ZM11.8984 13.9992C11.8984 15.159 12.8386 16.0992 13.9984 16.0992C14.5567 16.0992 15.0641 15.8814 15.4403 15.526L12.4717 12.5574C12.1163 12.9335 11.8984 13.4409 11.8984 13.9992ZM9.79844 13.9992C9.79844 16.3188 11.6788 18.1992 13.9984 18.1992C15.1366 18.1992 16.1691 17.7465 16.9255 17.0112L19.2138 19.2995C17.5314 19.9413 15.6808 20.2992 13.9984 20.2992C11.615 20.2992 8.90931 19.5816 6.82493 18.3736C4.69992 17.142 3.49844 15.5816 3.49844 13.9992C3.49844 12.9757 3.98971 11.9713 4.93703 11.0351C5.86151 10.1215 7.16784 9.33093 8.66062 8.74632L10.9864 11.0721C10.2512 11.8286 9.79844 12.861 9.79844 13.9992Z" fill="#828282"/>
</svg>
