<svg width="25" height="24" viewBox="0 0 25 24" fill="none" xmlns="http://www.w3.org/2000/svg">
<path fill-rule="evenodd" clip-rule="evenodd" d="M9.97331 2.2099e-07H14.8779C16.266 -9.52437e-06 17.3745 -1.73002e-05 18.2697 0.0752636C19.188 0.152475 19.9777 0.31445 20.7031 0.694834C21.8686 1.30603 22.8161 2.28128 23.41 3.48081C23.7796 4.22736 23.937 5.04018 24.012 5.9852C24.0851 6.90659 24.0851 8.0474 24.0851 9.47605V14.5239C24.0851 15.9526 24.0851 17.0934 24.012 18.0148C23.937 18.9598 23.7796 19.7726 23.41 20.5192C22.8161 21.7187 21.8686 22.694 20.7031 23.3052C19.9777 23.6855 19.188 23.8475 18.2697 23.9247C17.3745 24 16.2661 24 14.8779 24H9.97329C8.58517 24 7.47673 24 6.58148 23.9247C5.66328 23.8475 4.87352 23.6855 4.14816 23.3052C2.98266 22.694 2.03508 21.7187 1.44123 20.5192C1.07164 19.7726 0.914262 18.9598 0.839241 18.0148C0.766096 17.0934 0.766104 15.9526 0.766113 14.5239V9.47608C0.766104 8.04742 0.766096 6.90659 0.839241 5.9852C0.914262 5.04018 1.07164 4.22736 1.44123 3.48081C2.03508 2.28128 2.98266 1.30603 4.14816 0.694834C4.87352 0.31445 5.66328 0.152475 6.58148 0.0752636C7.47673 -1.73002e-05 8.58519 -9.52437e-06 9.97331 2.2099e-07ZM6.75951 2.31779C5.9765 2.38363 5.50646 2.50777 5.14065 2.6996C4.38651 3.09508 3.77337 3.72612 3.38911 4.50229C3.20272 4.87878 3.08211 5.36254 3.01814 6.16842C2.95312 6.98743 2.95227 8.0363 2.95227 9.525V14.475C2.95227 15.9637 2.95312 17.0126 3.01814 17.8316C3.08211 18.6375 3.20272 19.1212 3.38911 19.4977C3.77337 20.2739 4.38651 20.9049 5.14065 21.3004C5.50646 21.4922 5.9765 21.6164 6.75951 21.6822C7.55528 21.7491 8.57438 21.75 10.0208 21.75H14.8304C16.2768 21.75 17.296 21.7491 18.0917 21.6822C18.8747 21.6164 19.3448 21.4922 19.7106 21.3004C20.4647 20.9049 21.0779 20.2739 21.4621 19.4977C21.6485 19.1212 21.7691 18.6375 21.8331 17.8316C21.8981 17.0126 21.899 15.9637 21.899 14.475V9.525C21.899 8.0363 21.8981 6.98743 21.8331 6.16842C21.7691 5.36254 21.6485 4.87878 21.4621 4.50229C21.0779 3.72612 20.4647 3.09508 19.7106 2.6996C19.3448 2.50777 18.8747 2.38363 18.0917 2.31779C17.296 2.25088 16.2768 2.25 14.8304 2.25H10.0208C8.57438 2.25 7.55528 2.25088 6.75951 2.31779ZM12.7458 7.4545C13.1726 7.01516 13.8647 7.01517 14.2916 7.45451L17.9352 11.2045C18.1402 11.4155 18.2554 11.7017 18.2554 12C18.2554 12.2984 18.1402 12.5846 17.9352 12.7955L14.2916 16.5455C13.8647 16.9848 13.1726 16.9848 12.7458 16.5455C12.3189 16.1061 12.3189 15.3938 12.7458 14.9545L14.5233 13.125L7.68894 13.125C7.08525 13.125 6.59586 12.6214 6.59586 12C6.59586 11.3787 7.08525 10.875 7.68894 10.875L14.5234 10.875L12.7458 9.04549C12.3189 8.60615 12.3189 7.89384 12.7458 7.4545Z" fill="#99A2AD"/>
</svg>
