<svg width="50" height="50" viewBox="0 0 50 50" fill="none" xmlns="http://www.w3.org/2000/svg">
<path fill-rule="evenodd" clip-rule="evenodd" d="M25 50C38.8071 50 50 38.8071 50 25C50 11.1929 38.8071 0 25 0C11.1929 0 0 11.1929 0 25C0 38.8071 11.1929 50 25 50ZM17.2929 25.7071L23.6569 32.0711C24.0474 32.4616 24.6805 32.4616 25.0711 32.0711C25.4616 31.6805 25.4616 31.0474 25.0711 30.6569L20.4142 26H34V24H20.4142L25.0711 19.3431C25.4616 18.9526 25.4616 18.3195 25.0711 17.9289C24.6805 17.5384 24.0474 17.5384 23.6569 17.9289L17.2929 24.2929C16.9024 24.6834 16.9024 25.3166 17.2929 25.7071Z" fill="white" fill-opacity="0.85"/>
</svg>
